<svg id="Layer_1" data-name="Layer 1" xmlns="http://www.w3.org/2000/svg" width="1920" height="1080" viewBox="0 0 1920 1080"><defs><style>.cls-1,.cls-3{fill:none;stroke:#ffe6ad;stroke-miterlimit:10;}.cls-1{stroke-width:3px;}.cls-2{fill:#ffe6ad;}</style></defs><path class="cls-1" d="M629.77,716a483.7,483.7,0,0,0,61.49,16.53V759.8c-14.71-1.24-29.35-2.72-44-4.47v20.91l-17.48-.12Zm17.48,18.36v8.51c10.61,2.06,15.92,3,26.53,4.53v-7.46C663.17,738,657.86,736.9,647.25,734.36Z"/><path class="cls-1" d="M701.67,734.34a606.06,606.06,0,0,0,61.49,5.82v36.5q-30.75,0-61.49-.14Zm17.48,11.87c0,8.79,0,13.1.05,21.52,10.59.35,15.89.48,26.48.69V748.21C735.07,747.63,729.76,747.24,719.15,746.21Z"/><path class="cls-1" d="M773.26,740.43c20.52.2,41.21.56,61.5-2.72v24.67c-7.54.71-11.31.8-18.85.89,7.54,3.48,11.31,5,18.85,8.39v5c-7,0-10.49,0-17.49,0q-13.32-5.88-26.52-12v12H773.26Zm17.49,8.89v5.81c10.61,0,15.91-.08,26.52-.31v-6C806.66,749.19,801.36,749.29,790.75,749.32Z"/><path class="cls-1" d="M844.86,735.5c20.57-4.69,41-9.74,61.49-15v12.91c-8.67,1.77-13,2.66-21.67,4.39v38.5l-17.44.1V741.26c-9,1.73-13.43,2.56-22.38,4.17Z"/><path class="cls-1" d="M916.71,717.89c20.48-5.28,41-10.55,61.49-15.62v16.56q-22,4.35-44,8.89v9.76q14.67-2.49,29.36-4.91v16q-14.68,1.59-29.36,3.24v24.23l-17.48.1Z"/><path class="cls-1" d="M988.51,699.79c20.82-4.87,40-8.52,61.49-9.19v84.94q-30.75,0-61.49.2ZM1006,713.6q0,21.6,0,43.21c10.59-.66,15.89-1.14,26.48-1.22V710C1021.91,710.32,1016.6,711.68,1006,713.6Z"/><path class="cls-1" d="M1060.16,690.43c7-.07,10.48-.06,17.48.05v65.2q22,.21,44.06.74v19.3q-30.78-.06-61.54-.06Z"/><path class="cls-1" d="M1132,694c7,.83,10.49,1.31,17.49,2.42V775.8l-17.49,0Z"/><path class="cls-1" d="M1161,698.4a484.6,484.6,0,0,1,61.49,16.53V776.1q-30.75-.23-61.49-.36Zm17.48,20.44q0,19.95,0,39.9c10.59.64,15.88,1,26.47,1.83V724.42C1194.35,721.88,1189.05,720.77,1178.44,718.84Z"/><path class="cls-1" d="M629.77,634.72c19.2,14.23,39,26.51,61.49,35v29.09a267.5,267.5,0,0,1-44-17.49v21.26c-7-2.81-10.49-4.34-17.48-7.64ZM647.25,660v8.65a230.39,230.39,0,0,0,26.53,12.92v-7.79A223.75,223.75,0,0,1,647.25,660Z"/><path class="cls-1" d="M701.67,673.3a265.65,265.65,0,0,0,61.49,10.1v42.85a455.28,455.28,0,0,1-61.49-7.31Zm17.48,15.14c0,9.72,0,14.48.05,23.83a266.51,266.51,0,0,0,26.48,3.45v-23.2A201,201,0,0,1,719.15,688.44Z"/><path class="cls-1" d="M773.26,683.47c20.85-.71,41.53-2.13,61.5-8.43v30c-7.54,2.44-11.31,2.94-18.85,3.64,7.54,3.75,11.31,5.48,18.85,7.78v6.14a73.3,73.3,0,0,1-17.49,2.8c-8.9-4.39-17.77-8.9-26.52-13.59v14.73c-7,.14-10.49.15-17.49,0Zm17.49,9.78v7c10.61-.52,15.91-1,26.52-2.22V690.7C806.66,692.09,801.36,692.62,790.75,693.25Z"/><path class="cls-1" d="M844.86,671c20.79-8.69,41.18-18.11,61.49-27.86V656.5c-8.67,3.94-13,5.89-21.67,9.7v41.51c-7,2.22-10.46,3.31-17.44,5.44V673.69c-9,3.76-13.43,5.58-22.38,9Z"/><path class="cls-1" d="M916.71,638.14c20.43-10,40.85-19.91,61.49-29.43v15.43c-14.77,6.32-29.4,13-44,19.64v9.64q14.64-6.39,29.36-12.61V656q-14.71,5.69-29.36,11.56v23.94l-17.48,5.77Z"/><path class="cls-1" d="M988.51,604.09c20.69-8.93,39-15.72,61.49-18.59v76.75c-21.86,1.09-40.6,5.72-61.49,11.93Zm17.48,8.68q0,19.58,0,39.14c10.59-3.39,15.89-5.66,26.48-6.58V604.59C1021.91,606,1016.6,608.66,1006,612.77Z"/><path class="cls-1" d="M1060.16,584.53c7-.55,10.48-.73,17.48-.86v59.89c14.81.36,29.34,1.36,44.06,3.08v18.2a527.08,527.08,0,0,0-61.54-2.8Z"/><path class="cls-1" d="M1132,588.84a176.54,176.54,0,0,1,17.49,4.64v75.87c-7-1.43-10.49-2.05-17.49-3.1Z"/><path class="cls-1" d="M1161,597.43c22.44,8.46,42.29,20.74,61.49,35v61.09A386.67,386.67,0,0,0,1161,671.8Zm17.48,23.78q0,19.38,0,38.76A259.1,259.1,0,0,1,1205,670.66V635A223.61,223.61,0,0,0,1178.44,621.21Z"/><path class="cls-1" d="M629.77,553.34c18.59,20,37.52,36.37,61.49,49.51v30.9c-16-7.1-30.22-17-44-27.71v21.6a219.35,219.35,0,0,1-17.48-14Zm17.48,31v8.79c8.56,7,17.06,13.84,26.53,19.62v-8.12C664.28,598.68,655.79,591.62,647.25,584.38Z"/><path class="cls-1" d="M701.67,607.61a167.77,167.77,0,0,0,61.49,10.46v49.19a231.7,231.7,0,0,1-61.49-10.57Zm17.48,17.28c0,10.64,0,15.87.05,26.15a147.27,147.27,0,0,0,26.48,4.51V629.37A124.58,124.58,0,0,1,719.15,624.89Z"/><path class="cls-1" d="M773.26,617.29a261.54,261.54,0,0,0,61.5-16.53V636a96.27,96.27,0,0,1-18.85,6.07c7.54,3.55,11.31,5.28,18.85,7.48v7.33A76.24,76.24,0,0,1,817.27,662c-8.92-4.3-17.8-8.76-26.52-13.45V666c-7,.71-10.49,1-17.49,1.18Zm17.49,9.56V635a211.57,211.57,0,0,0,26.52-5.81v-8.71A205.66,205.66,0,0,1,790.75,626.85Z"/><path class="cls-1" d="M844.86,596.24c21-10.11,41.31-21.29,61.49-33V577c-8.67,5-13,7.46-21.67,12.24V633.8c-7,3.5-10.46,5.23-17.44,8.56V598.64c-9,4.65-13.43,6.89-22.38,11Z"/><path class="cls-1" d="M916.71,557.2c20.38-12,40.74-24.06,61.49-35.43v14.31c-14.86,7.91-29.46,16.32-44,24.79v9.52q14.64-8.37,29.36-16.58v14.41q-14.73,8-29.36,16.17V608l-17.48,9.21Z"/><path class="cls-1" d="M988.51,516.32c20.08-10.07,39.86-18.64,61.49-24.88V560c-22.43,3.67-41,11-61.49,20.53ZM1006,522.1q0,17.53,0,35.06c8.36-3.8,17.37-8.22,26.48-9.94V511.36C1023.43,513.91,1014.5,518.08,1006,522.1Z"/><path class="cls-1" d="M1060.16,489a158,158,0,0,1,17.48-2.88v54.57a255.7,255.7,0,0,1,44.06,2.63v17.1a261.86,261.86,0,0,0-61.54-1.63Z"/><path class="cls-1" d="M1132,489.51a117.92,117.92,0,0,1,17.49,5.75v72.36a155.36,155.36,0,0,0-17.49-5Z"/><path class="cls-1" d="M1161,500.45c24,13.14,42.9,29.52,61.49,49.51v61c-18.93-15.78-38.63-29.6-61.49-39.12Zm17.48,26q0,18.81,0,37.61c9.36,5.24,17.89,11.46,26.47,17.86V546.77C1196.42,539.52,1187.94,532.46,1178.44,526.48Z"/><path class="cls-1" d="M629.77,471.05c18.93,15.78,38.62,29.59,61.49,39.11V554.3c-16.14-7.48-30.3-18-44-29.16v25a224.46,224.46,0,0,1-17.48-18.07Zm17.48,29v10.16c8.59,6.66,17.11,13.14,26.53,18.6V518C664.4,512.71,655.85,506.48,647.25,500.08Z"/><path class="cls-1" d="M701.67,514.13a232.5,232.5,0,0,0,61.49,10.57v72.09a168,168,0,0,1-61.49-10.47Zm17.48,22.17q0,19.74.05,39.47a125.39,125.39,0,0,0,26.48,4.48V540.83A147,147,0,0,1,719.15,536.3Z"/><path class="cls-1" d="M773.26,524.6c21-1.16,41.54-3.43,61.5-10.29v40.81a114.81,114.81,0,0,1-18.85,6.45,105.73,105.73,0,0,0,18.85,9.34v8.58a175.76,175.76,0,0,1-17.49,6.63c-9.43-4.73-17.94-10.65-26.52-16.73v23.87A155.67,155.67,0,0,1,773.26,596ZM790.75,540V551a225.16,225.16,0,0,0,26.52-5.08V535.35A235.9,235.9,0,0,1,790.75,540Z"/><path class="cls-1" d="M844.86,510c20.85-9.31,41.22-19.43,61.49-29.92v14.33c-8.67,4.7-13,7-21.67,11.55v48.41c-7,3.9-10.46,5.8-17.44,9.46v-49c-9,4.43-13.43,6.57-22.38,10.57Z"/><path class="cls-1" d="M916.71,474.69c20.41-10.75,40.83-21.48,61.49-31.74v12.89c-14.83,7.5-29.43,15.43-44,23.4v9.36q14.64-8.16,29.36-16.16v13.35q-14.73,8.2-29.36,16.57v23.25l-17.48,10.32Z"/><path class="cls-1" d="M988.51,438c20.54-9.49,39.06-16.86,61.49-20.52v52.7c-21.63,6.23-41.41,14.8-61.49,24.88Zm17.48,4.49q0,15.24,0,30.48c8.49-4,17.41-8.18,26.48-10.72V432.53C1023.39,434.25,1014.37,438.67,1006,442.49Z"/><path class="cls-1" d="M1060.16,416.2c7-.75,10.48-1,17.48-1.27V453a215,215,0,0,1,44.06,1.66v11.38c-21.19-2.89-40.57-2-61.54,1.77Z"/><path class="cls-1" d="M1132,420a155.36,155.36,0,0,1,17.49,5v49.09a118,118,0,0,0-17.49-5.76Z"/><path class="cls-1" d="M1161,429.33c22.86,9.51,42.56,23.32,61.49,39.11v60.25c-18.59-20-37.53-36.35-61.49-49.49Zm17.48,20q0,14,0,28c9.48,6,18,13,26.47,20.25V467.25C1196.36,460.85,1187.82,454.62,1178.44,449.37Z"/><path class="cls-1" d="M629.77,388.54a386.53,386.53,0,0,0,61.49,21.67v46a248.08,248.08,0,0,1-44-19.41v25.34c-7-4.56-10.49-7.05-17.48-12.48Zm17.48,22.83v10.3a246,246,0,0,0,26.53,11.61V422.06A260.11,260.11,0,0,1,647.25,411.37Z"/><path class="cls-1" d="M701.67,412.55a453.67,453.67,0,0,0,61.49,7.3V498.3a266.19,266.19,0,0,1-61.49-10.1Zm17.48,21.17q0,20.88.05,41.77a200.3,200.3,0,0,0,26.48,4.08v-42.4A267.49,267.49,0,0,1,719.15,433.72Z"/><path class="cls-1" d="M773.26,420.13c20.56.09,41.32.23,61.5-4v46.08c-7.54,2.64-11.31,3.22-18.85,4.07,7.54,6.59,11.31,9.59,18.85,13.87v9.75a69.8,69.8,0,0,1-17.49,4.58c-9.2-7.41-18-15.29-26.52-23.49v26.56c-7,.52-10.49.68-17.49.77Zm17.49,18.26v12.25c10.61-.38,15.91-.76,26.52-1.77v-12C806.66,437.76,801.36,438.09,790.75,438.39Z"/><path class="cls-1" d="M844.86,413.37c20.62-6,41.08-12.4,61.49-19v14.76c-8.67,3.2-13,4.79-21.67,7.9V468.4c-7,3.26-10.46,4.86-17.44,8V423.11c-9,3.08-13.43,4.57-22.38,7.42Z"/><path class="cls-1" d="M916.71,390.93c20.47-6.75,40.93-13.48,61.49-19.95v11.77c-14.73,5.15-29.38,10.56-44,16V408q14.65-5.87,29.36-11.56V409q-14.73,6.19-29.36,12.6v22.95l-17.48,8.53Z"/><path class="cls-1" d="M988.51,367.82c20.89-6.2,39.63-10.82,61.49-11.91v44.52c-22.47,2.87-40.8,9.66-61.49,18.58Zm17.48,5.6c0,10.24,0,15.52,0,26.41,10.59-4.1,15.89-6.71,26.48-8.16V366.83C1021.91,367.75,1016.6,370,1006,373.42Z"/><path class="cls-1" d="M1060.16,355.59c7-.15,10.48-.17,17.48-.08v32.81a357,357,0,0,1,44.06,3.23v10.28a302.36,302.36,0,0,0-61.54-2.31Z"/><path class="cls-1" d="M1132,359.8c7,1.05,10.49,1.67,17.49,3.1v45.58a173.9,173.9,0,0,0-17.49-4.65Z"/><path class="cls-1" d="M1161,365.45a386.63,386.63,0,0,1,61.49,21.68v60.18c-19.2-14.22-39-26.5-61.49-34.95Zm17.48,16c0,10.65,0,16,0,26.87A222.74,222.74,0,0,1,1205,422.07V392.14A260.87,260.87,0,0,0,1178.44,381.45Z"/><path class="cls-1" d="M629.77,305.93q30.75.21,61.49.34v47.78c-14.76-1.9-29.38-4.17-44-6.85v25.69c-7-2.14-10.49-3.29-17.48-5.79Zm17.48,15.52V331.9c10.61,1.33,15.92,1.91,26.53,2.93V323.27C663.17,322.64,657.86,322.28,647.25,321.45Z"/><path class="cls-1" d="M701.67,306.31q30.75.09,61.49.13v84.79a609,609,0,0,1-61.49-5.82Zm17.48,19.05q0,22,.05,44.08c10.59,1,15.89,1.41,26.48,2V326.05C735.07,325.84,729.76,325.7,719.15,325.36Z"/><path class="cls-1" d="M773.26,306.45q30.75,0,61.5,0v51.37a131.36,131.36,0,0,1-18.85,1.37c7.54,8.16,11.31,12.17,18.85,18.7v10.93a86.36,86.36,0,0,1-17.49,2.12c-9-9.33-17.85-18.88-26.52-28.55v29.23c-7,.06-10.49.05-17.49-.08Zm17.49,20.05V340c10.61,0,15.91,0,26.52-.16V326.42C806.66,326.5,801.36,326.52,790.75,326.5Z"/><path class="cls-1" d="M844.86,306.36q30.75-.15,61.49-.33v15.19c-8.67.6-13,.9-21.67,1.48v54.42c-7,1.74-10.46,2.59-17.44,4.26V323.86c-9,.58-13.43.87-22.38,1.42Z"/><path class="cls-1" d="M916.71,306l61.49-.34v10.64q-22,1.47-44,3v9.12q14.68-1.62,29.36-3.22v11.74q-14.68,2.41-29.36,4.9v22.66L916.71,369Z"/><path class="cls-1" d="M988.51,305.58q30.75-.15,61.49-.19v36.34c-21.44.66-40.67,4.31-61.49,9.17ZM1006,314.5c0,8.62,0,13.09,0,22.36,10.59-1.91,15.89-3.26,26.48-3.6v-20C1021.91,313.37,1016.6,313.85,1006,314.5Z"/><path class="cls-1" d="M1060.16,305.39h17.48v27.49c14.72.35,29.37,1,44.06,2v9.17c-20.53-1.76-41-2.51-61.54-2.47Z"/><path class="cls-1" d="M1132,305.48l17.49.06v42.07c-7-1.11-10.49-1.59-17.49-2.42Z"/><path class="cls-1" d="M1161,305.58q30.74.12,61.49.33V366A484.52,484.52,0,0,0,1161,349.52Zm17.48,10.84c0,10.18,0,15.32,0,25.7,10.59,1.93,15.88,3,26.47,5.56V318.24C1194.35,317.41,1189.05,317.05,1178.44,316.42Z"/><path class="cls-2" d="M628.65,216.85h61.74v47H646.21v29.47H628.65Zm17.56,17.55v11.92h26.63V234.4Z"/><path class="cls-2" d="M700.84,216.85h61.74v76.44H700.84Zm17.55,17.55.05,41.34H745V234.4Z"/><path class="cls-2" d="M772.72,216.85h61.74v47H815.54l18.92,19v10.5H816.91l-26.64-26.83v26.83H772.72Zm17.55,17.55v11.92h26.64V234.4Z"/><path class="cls-2" d="M844.6,216.85h61.74V234.4H884.58v58.89h-17.5V234.4H844.6Z"/><path class="cls-2" d="M916.74,216.85h61.74V234.4H934.29v11.92h29.47v17.5H934.29v29.47H916.74Z"/><path class="cls-2" d="M988.82,216.85h61.74v76.44H988.82Zm17.56,17.55,0,41.34H1033V234.4Z"/><path class="cls-2" d="M1060.76,216.85h17.55v59h44.23V293.4h-61.78Z"/><path class="cls-2" d="M1132.89,216.85h17.55V293.4h-17.55Z"/><path class="cls-2" d="M1162,216.85h61.74v76.44H1162Zm17.55,17.55,0,41.34h26.58V234.4Z"/><path class="cls-2" d="M626.72,833.85h25v7.09h-8.8v23.81h-7.07V840.94h-9.09Z"/><path class="cls-2" d="M655.88,833.64H663v12h10.85v-12H681v31.11h-7.13v-12H663v12h-7.14Z"/><path class="cls-2" d="M685,833.85h25v7.09H692.14v4.82h11.92v7.08H692.43l0,4.82H710v7.09H685Z"/><path class="cls-2" d="M714.19,833.85h24.95v19h-7.65l7.65,7.67v4.24h-7.09L721.28,853.9v10.85h-7.09Zm7.09,7.09v4.82h10.77v-4.82Z"/><path class="cls-2" d="M743.31,833.85h25v7.09H750.4v4.82h11.92v7.08H750.69l0,4.82h17.62v7.09h-25Z"/><path class="cls-2" d="M772.49,833.85h24.92l0,7.09H779.59v4.82h17.86v19h-25v-7.09l17.86,0v-4.84H772.49Z"/><path class="cls-2" d="M801.57,833.85h25v30.9h-7.1v-6H808.67v6h-7.1Zm7.1,7.09v10.77h10.76V840.94Z"/><path class="cls-2" d="M838.73,833.85h25v30.9h-7.1v-6H845.83v6h-7.1Zm7.1,7.09v10.77h10.76V840.94Z"/><path class="cls-2" d="M867.89,833.85h25v30.9h-7.1v-6H875v6h-7.1Zm7.1,7.09v10.77h10.76V840.94Z"/><path class="cls-2" d="M897.05,833.85h25v7.09H904.15v16.72h10.77v-11.9H922v19h-25Z"/><path class="cls-2" d="M926.13,833.85h25v30.9H944v-6H933.23v6h-7.1Zm7.1,7.09v10.77H944V840.94Z"/><path class="cls-2" d="M955.3,833.85h25v30.9h-7.09v-6H962.39v6H955.3Zm7.09,7.09v10.77h10.77V840.94Z"/><path class="cls-2" d="M984.44,833.85h25v19h-7.65l7.65,7.67v4.24h-7.1L991.53,853.9v10.85h-7.09Zm7.09,7.09v4.82h10.77v-4.82Z"/><path class="cls-2" d="M1013.56,833.85h19.28l5.68,5.68v19.54l-5.68,5.68h-19.28Zm7.09,7.09v16.72h10.77V840.94Z"/><path class="cls-2" d="M1050.72,833.64h7.14v12h10.84v-12h7.14v31.11h-7.14v-12h-10.84v12h-7.14Z"/><path class="cls-2" d="M1079.88,833.85h25v30.9h-7.1v-6H1087v6h-7.1Zm7.1,7.09v10.77h10.76V840.94Z"/><path class="cls-2" d="M1109,833.85h7.1V837l10.76,10.85v-14h7.1v30.9h-7.1v-6L1116.12,848v16.79H1109Z"/><path class="cls-2" d="M1138.16,833.85h24.92l0,7.09h-17.86v4.82h17.86v19h-25v-7.09l17.87,0v-4.84h-17.87Z"/><path class="cls-2" d="M1167.24,833.85h25v7.09h-17.86v4.82h11.91v7.08h-11.62l0,4.82h17.61v7.09h-25Z"/><path class="cls-2" d="M1196.39,833.85h7.09V837l10.77,10.85v-14h7.09v30.9h-7.09v-6L1203.48,848v16.79h-7.09Z"/><path class="cls-3" d="M872.41,886.93h12.42v29.44h-6.75V893.69h-5.67Z"/><path class="cls-3" d="M888.78,910.56h5.86v5.86h-5.86Z"/><path class="cls-3" d="M906.24,886.93H930l0,6.76H913v4.59h17v18.09H906.24v-6.76l17,0V905h-17Z"/><path class="cls-3" d="M933.94,886.93h23.77v6.76h-17v4.59H952V905H941l0,4.59h16.78v6.76H933.94Z"/><path class="cls-3" d="M961.65,886.93H966l7.56,7.48,7.5-7.48h4.32v29.44h-6.76V900.7L974.35,905h-1.63l-4.31-4.32v15.67h-6.76Z"/><path class="cls-3" d="M733.73,934.93h4.4l7.55,7.48,7.5-7.48h4.32v29.44h-6.76V948.7L746.43,953h-1.62l-4.32-4.32v15.67h-6.76Z"/><path class="cls-3" d="M761.45,934.93h6.75l0,22.72h10.26V934.93h6.76V964.4H761.45Z"/><path class="cls-3" d="M789.22,934.93H796v22.72h17v6.75H789.22Z"/><path class="cls-3" d="M816.93,934.93H840.7v6.76h-8.37v22.68h-6.74V941.69h-8.66Z"/><path class="cls-3" d="M844.71,934.93h6.76V964.4h-6.76Z"/><path class="cls-3" d="M855.82,934.93h4.4l7.55,7.48,7.5-7.48h4.32v29.44h-6.76V948.7L868.52,953H866.9l-4.32-4.32v15.67h-6.76Z"/><path class="cls-3" d="M883.59,934.93h23.77v6.76h-17v4.59H901.7V953H890.63l0,4.59h16.77v6.76H883.59Z"/><path class="cls-3" d="M911.37,934.93h18.36l5.41,5.41V959l-5.41,5.41H911.37Zm6.76,6.76v15.92h10.25V941.69Z"/><path class="cls-3" d="M939.14,934.93h6.76V964.4h-6.76Z"/><path class="cls-3" d="M950.31,934.93h23.77v6.76h-17v4.59h11.35V953H957.34l0,4.59h16.77v6.76H950.31Z"/><path class="cls-3" d="M978.09,934.93h18.36l5.41,5.41V959l-5.41,5.41H978.09Zm6.75,6.76v15.92H995.1V941.69Z"/><path class="cls-3" d="M1005.86,934.93h23.77v6.76h-17v4.59H1024V953h-11.07l0,4.59h16.78v6.76h-23.77Z"/><path class="cls-3" d="M1033.65,934.93h23.73l0,6.76h-17v4.59h17v18.09h-23.77v-6.76l17,0V953h-17Z"/><path class="cls-3" d="M1061.35,934.93h6.76V964.4h-6.76Z"/><path class="cls-3" d="M1072.52,934.93h23.77v6.76h-17v15.92h10.25V946.28h6.76v18.09h-23.77Z"/><path class="cls-3" d="M1100.2,934.93H1107v3l10.26,10.33v-13.3H1124v29.44h-6.75V958.7L1107,948.37v16h-6.75Z"/></svg>
