<svg xmlns="http://www.w3.org/2000/svg" xmlns:xlink="http://www.w3.org/1999/xlink" width="1920" height="1080" viewBox="0 0 1920 1080"><defs><style>.cls-1{fill:#fff;}.cls-2{opacity:0.4;}.cls-3,.cls-5{fill:none;stroke:#ffe6ad;stroke-miterlimit:10;}.cls-3{stroke-width:3px;}.cls-4{fill:#ffe6ad;}</style></defs><g id="LINES"><g id="baggrund"><rect x="0.5" y="0.5" width="1919" height="1079"/><path class="cls-1" d="M1919,1V1079H1V1H1919m1-1H0V1080H1920V0Z"/></g><g class="cls-2"><image width="2001" height="1147" transform="translate(-44 -31)" xlink:href="Forside1.png"/></g></g><g id="text"><path class="cls-3" d="M612.48,699.83a492.05,492.05,0,0,0,71.08,21.44v35.84c-17-1.46-33.95-3.51-50.87-5.79v27.39l-20.21-.14Zm20.21,24V735c10.15,2.25,20.41,4.21,30.66,5.89v-9.79C653.08,729,642.8,726.59,632.69,723.83Z"/><path class="cls-3" d="M695.59,723.6A602.82,602.82,0,0,0,766.66,731v48.16q-35.53,0-71.07-.16Zm20.2,15.59.06,28.3q15.3.59,30.6.9V741.76C736.23,741.17,726,740.32,715.79,739.19Z"/><path class="cls-3" d="M778.34,731.36c23.54.22,47.93.92,71.07-3.65v32.73a201.13,201.13,0,0,1-21.78,1.14c8.71,4.61,13.07,6.67,21.78,11.07v6.5c-8.08,0-12.12.05-20.2.05q-15.4-7.79-30.66-15.81v15.82H778.34Zm20.21,11.77v7.71q15.32,0,30.66-.44v-7.9C819,742.88,808.76,743.1,798.55,743.13Z"/><path class="cls-3" d="M861.09,724.89c23.81-6,47.46-12.46,71.08-19.14v16.93c-10,2.29-15,3.42-25.06,5.65v50.51L887,779V732.72c-10.34,2.21-15.52,3.29-25.87,5.35Z"/><path class="cls-3" d="M944.14,702.34c23.66-6.77,47.32-13.54,71.07-20v21.54q-25.47,5.6-50.87,11.44v12.75q17-3.18,33.93-6.33v20.91q-17,2.07-33.93,4.18V778.5l-20.2.12Z"/><path class="cls-3" d="M1027.12,679.14c24.3-6.3,46-10.9,71.08-11.82V777.91q-35.55,0-71.08.23Zm20.21,18,.06,56.28c10.16-.71,20.41-1.66,30.6-1.57V692.49C1067.76,692.42,1057.28,695.13,1047.33,697.13Z"/><path class="cls-3" d="M1109.93,667.07c8.09-.11,12.13-.12,20.21,0V752c17,.15,34,.43,50.93.95v25.24q-35.58-.07-71.14-.08Z"/><path class="cls-3" d="M1193,671.54c8.08,1.07,12.12,1.68,20.21,3.11V778.22l-20.21-.06Z"/><path class="cls-3" d="M1226.44,677.2a492.4,492.4,0,0,1,71.08,21.43v79.92q-35.55-.27-71.08-.42Zm20.21,26.61.06,52.1q15.3,1,30.6,2.36V711.06C1267.2,708.31,1256.92,705.88,1246.65,703.81Z"/><path class="cls-3" d="M612.48,607.68c22,17.05,45.06,31.84,71.08,42v38.17a388.89,388.89,0,0,1-50.87-20.49v27.83c-8.08-3.2-12.12-4.93-20.21-8.69Zm20.21,31.74v11.33c10.14,5.56,20.12,10.56,30.66,15.32V655.85C652.77,650.74,642.82,645.38,632.69,639.42Z"/><path class="cls-3" d="M695.59,654a285.17,285.17,0,0,0,71.07,11.91v56.29a519,519,0,0,1-71.07-8.36Zm20.2,19.33.06,31.27c10.09,1.8,20.39,3.14,30.6,4V678.14A248.38,248.38,0,0,1,715.79,673.32Z"/><path class="cls-3" d="M778.34,665.93c23.9-.87,48.36-2.51,71.07-10.34V695.1c-8.71,2.84-13.07,3.41-21.78,4.24,8.71,5,13.07,7.36,21.78,10.7v8a85.77,85.77,0,0,1-20.2,3.16q-15.45-8.79-30.66-18v19.26c-8.09.15-12.13.16-20.21,0Zm20.21,12.94v9.23c10.22-.5,20.5-1.42,30.66-2.69v-9.67C819.07,677.18,808.77,678.25,798.55,678.87Z"/><path class="cls-3" d="M861.09,650.86c24.06-10.26,47.62-21.43,71.08-33v17.48c-10,4.64-15,6.95-25.06,11.45v54.37c-8.06,2.52-12.09,3.76-20.15,6.19V655.65c-10.34,4.43-15.52,6.58-25.87,10.65Z"/><path class="cls-3" d="M944.14,611.91c23.6-11.82,47.2-23.62,71.07-34.89v20.09c-17,7.54-34,15.32-50.87,23.2v12.6q16.93-7.5,33.93-14.84V638q-17,6.64-33.93,13.5v31.31l-20.2,6.56Z"/><path class="cls-3" d="M1027.12,571.55c24.1-10.67,44.9-18.61,71.08-22.16V649.48c-25.41,1.2-46.71,6.38-71.08,13.53Zm20.21,12.14.06,51c9.69-3.13,20.28-7.3,30.6-7.61V574C1067.42,575,1057.08,579.93,1047.33,583.69Z"/><path class="cls-3" d="M1109.93,548.17c8.09-.71,12.13-.94,20.21-1.13v78.07a468.86,468.86,0,0,1,50.93,3.58v23.82a599.35,599.35,0,0,0-71.14-3.24Z"/><path class="cls-3" d="M1193,553a197.87,197.87,0,0,1,20.21,5.53v99.08c-8.09-1.62-12.13-2.33-20.21-3.53Z"/><path class="cls-3" d="M1226.44,563.28c26,10.14,49.09,24.94,71.08,42V685.1a438.94,438.94,0,0,0-71.08-24.68Zm20.21,30.24.06,50.63c10.42,3.83,20.45,7.9,30.6,12.4V610C1267.18,604,1257.22,598.63,1246.65,593.52Z"/><path class="cls-3" d="M612.48,515.43c21.17,23.33,43.42,43,71.08,58.21v40.5c-18.49-8.41-34.93-19.63-50.87-32.09v28.27a251.81,251.81,0,0,1-20.21-16Zm20.21,38.26V565.2a243.25,243.25,0,0,0,30.66,22.87V577.43A240.4,240.4,0,0,1,632.69,553.69Z"/><path class="cls-3" d="M695.59,579.21a184.06,184.06,0,0,0,71.07,12v64.42a265.21,265.21,0,0,1-71.07-12.21ZM715.79,601l.06,34.24a188.93,188.93,0,0,0,30.6,5.23V606.23A157.11,157.11,0,0,1,715.79,601Z"/><path class="cls-3" d="M778.34,590.28c24.86-3.58,47.83-10.25,71.07-19.71v46.28a111.32,111.32,0,0,1-21.78,7c8.71,4.91,13.07,7.34,21.78,10.69v9.53a86.48,86.48,0,0,1-20.2,5.84c-10.32-5.94-20.56-12-30.66-18.29v22.7c-8.09.79-12.13,1.06-20.21,1.29Zm20.21,12.87v10.76a266,266,0,0,0,30.66-6.82V595.64A256.69,256.69,0,0,1,798.55,603.15Z"/><path class="cls-3" d="M861.09,565.35c24.33-11.64,47.77-24.61,71.08-38.15v18q-12.46,7.21-25.06,14.2v58.22c-8.06,4-12.09,6-20.15,9.81V570.26c-8.5,4.47-17.14,8.76-25.87,12.78Z"/><path class="cls-3" d="M944.14,520.15c23.55-14,47.07-27.92,71.07-41.08v18.65c-17.17,9.2-34.06,18.91-50.87,28.74v12.45c11.27-6.48,22.56-12.92,33.93-19.2v18.84q-17.06,9.18-33.93,18.67v30.94l-20.2,10.54Z"/><path class="cls-3" d="M1027.12,472.77c23.2-11.69,46.14-21.68,71.08-29v89.6c-26.13,4-47.1,12.37-71.08,23.38Zm20.21,8.77.06,45.81c9.82-4.3,19.95-9.47,30.6-11.42V469.06C1067.37,472.71,1057.55,476.9,1047.33,481.54Z"/><path class="cls-3" d="M1109.93,440.82a180.69,180.69,0,0,1,20.21-3.5v71.26a256.1,256.1,0,0,1,50.93,3.1v22.4a299.23,299.23,0,0,0-71.14-2.05Z"/><path class="cls-3" d="M1193,441a134.4,134.4,0,0,1,20.21,6.71v94.6a183.13,183.13,0,0,0-20.21-5.78Z"/><path class="cls-3" d="M1226.44,453.79c27.66,15.23,49.91,34.87,71.08,58.2v79.76c-21.81-18-44.79-33.8-71.08-44.61Zm20.21,32.63.06,49.16a252.79,252.79,0,0,1,30.6,20.56v-46A239.5,239.5,0,0,0,1246.65,486.42Z"/><path class="cls-3" d="M612.48,422.24c21.81,18,44.8,33.78,71.08,44.58v57.75c-18.66-8.92-35-20.82-50.87-34v32.67A285.72,285.72,0,0,1,612.48,502Zm20.21,35.59v13.29a247.34,247.34,0,0,0,30.66,21.54V478.42A250.62,250.62,0,0,1,632.69,457.83Z"/><path class="cls-3" d="M695.59,471.37a265.59,265.59,0,0,0,71.07,12.2v94.24a184.25,184.25,0,0,1-71.07-12.06Zm20.2,28.21.06,51.59a157.12,157.12,0,0,0,30.6,5.18V504.83A189.69,189.69,0,0,1,715.79,499.58Z"/><path class="cls-3" d="M778.34,483.5c24-1.16,48.34-3.37,71.07-11.53v53.45a135.77,135.77,0,0,1-21.78,7.5A136.5,136.5,0,0,0,849.41,546v11.14c-8.08,3.47-12.12,5-20.2,7.78a222.22,222.22,0,0,1-30.66-22.51v31.09a177.71,177.71,0,0,1-20.21,3.34Zm20.21,20.41V518.4a282.81,282.81,0,0,0,30.66-5.86V498.67A295.21,295.21,0,0,1,798.55,503.91Z"/><path class="cls-3" d="M861.09,467.08c24.1-10.63,47.64-22.24,71.08-34.26v18.76q-12.48,6.76-25.06,13.31v63.25c-8.06,4.51-12.09,6.71-20.15,10.94v-64c-8.53,4.23-17.16,8.32-25.87,12.18Z"/><path class="cls-3" d="M944.14,426.61c23.6-12.3,47.18-24.59,71.07-36.32v16.83c-17.08,8.74-34,17.78-50.87,26.94V446.3q16.9-9.45,33.93-18.67v17.48c-11.37,6.29-22.66,12.72-33.93,19.2v30.43l-20.2,12Z"/><path class="cls-3" d="M1027.12,384.62c24-11,45-19.32,71.08-23.37v69c-24.94,7.37-47.88,17.36-71.08,29Zm20.21,7.11.06,39.92c10.2-4.63,20-8.81,30.6-12.44V380.28C1067.32,382.23,1057.17,387.42,1047.33,391.73Z"/><path class="cls-3" d="M1109.93,359.84c8.09-.83,12.13-1.12,20.21-1.39v49.84a211.25,211.25,0,0,1,50.93,1.83v14.95c-24.53-3.45-46.86-2.3-71.14,2.41Z"/><path class="cls-3" d="M1193,364.34a183.13,183.13,0,0,1,20.21,5.78v64.26a134.4,134.4,0,0,0-20.21-6.71Z"/><path class="cls-3" d="M1226.44,375.08c26.28,10.8,49.27,26.57,71.08,44.58v78.89c-21.17-23.32-43.42-42.95-71.08-58.19Zm20.21,24.83.06,36.7a241.76,241.76,0,0,1,30.6,23.69V420.49A251.69,251.69,0,0,0,1246.65,399.91Z"/><path class="cls-3" d="M612.48,328.88a438.86,438.86,0,0,0,71.08,24.66v60.08a358.69,358.69,0,0,1-50.87-23v33.11c-8.08-5.49-12.12-8.48-20.21-15Zm20.21,28.55V370.9c10.16,4.93,20.18,9.39,30.66,13.6V369.84C652.91,366,642.86,361.93,632.69,357.43Z"/><path class="cls-3" d="M695.59,356.2a520.5,520.5,0,0,0,71.07,8.35V466.92A285.64,285.64,0,0,1,695.59,455Zm20.2,27.16.06,54.56a247.39,247.39,0,0,0,30.6,4.8V387.37C736.23,386.51,725.9,385.17,715.79,383.36Z"/><path class="cls-3" d="M778.34,364.87c23.54.16,48,.71,71.07-4.44v60.22c-8.71,3.09-13.07,3.78-21.78,4.8,6.39,6.63,13.77,13.83,21.78,18.51v12.65a82.09,82.09,0,0,1-20.2,5.48c-10.61-9.9-20.74-20.11-30.66-30.69v34.52c-8.09.67-12.13.88-20.21,1Zm20.21,23.93v16c10.21-.35,20.49-1.07,30.66-2.1V387.06C819,387.93,808.76,388.53,798.55,388.8Z"/><path class="cls-3" d="M861.09,357.24c23.84-6.77,47.48-14.1,71.08-21.66v19.31c-10,3.71-15,5.55-25.06,9.14v67.11C899.05,435,895,436.89,887,440.57V371.12c-10.34,3.57-15.52,5.3-25.87,8.59Z"/><path class="cls-3" d="M944.14,331.71c23.65-7.67,47.31-15.34,71.07-22.69V324.4q-25.51,9-50.87,18.52V355q16.93-6.83,33.93-13.5V358q-17,7.29-33.93,14.83v30L944.14,413Z"/><path class="cls-3" d="M1027.12,305.42c24.36-7.14,45.67-12.32,71.08-13.52v58.55c-26.18,3.54-47,11.49-71.08,22.15Zm20.21,8.17.06,34.71c9.73-3.76,20-8.71,30.6-9.64V306C1067.65,306.29,1057,310.46,1047.33,313.59Z"/><path class="cls-3" d="M1109.93,291.55c8.09-.16,12.13-.18,20.21-.07v43a341.76,341.76,0,0,1,50.93,3.74V351.8a323.11,323.11,0,0,0-71.14-2.49Z"/><path class="cls-3" d="M1193,296.4c8.08,1.2,12.12,1.9,20.21,3.53v59.78a195.33,195.33,0,0,0-20.21-5.53Z"/><path class="cls-3" d="M1226.44,302.84a439.19,439.19,0,0,1,71.08,24.66v78.81c-22-17-45.06-31.83-71.08-42ZM1246.65,323l.06,35.21c10.55,5.1,20.49,10.44,30.6,16.39v-39.2C1267.14,330.87,1257.09,326.79,1246.65,323Z"/><path class="cls-3" d="M612.48,235.44q35.55.24,71.08.38v62.41c-17.08-2.44-34-5.39-50.87-8.9v33.54c-8.08-2.77-12.12-4.27-20.21-7.52Zm20.21,20.26v13.64c10.19,1.46,20.43,2.72,30.66,3.81V258.06Q648,257,632.69,255.7Z"/><path class="cls-3" d="M695.59,235.86q35.53.12,71.07.15V346.52a605,605,0,0,1-71.07-7.43Zm20.2,24.89.06,57.51c10.16,1.12,20.4,2,30.6,2.56V261.64Q731.12,261.33,715.79,260.75Z"/><path class="cls-3" d="M778.34,236c23.69,0,47.38,0,71.07,0v67a137.88,137.88,0,0,1-21.78,1.77c6.92,8.34,13.74,17,21.78,24.28V343.2a93.44,93.44,0,0,1-20.2,2.73c-10.52-12.08-20.66-24.48-30.66-37v38c-8.09.1-12.13.09-20.21-.06Zm20.21,26.21v17.54q15.33,0,30.66-.22V262.12Q813.88,262.26,798.55,262.23Z"/><path class="cls-3" d="M861.09,235.92q35.53-.16,71.08-.37v19.86c-10,.78-15,1.16-25.06,1.92v70.95c-8.06,2.23-12.09,3.32-20.15,5.46V258.82c-10.34.75-15.52,1.12-25.87,1.83Z"/><path class="cls-3" d="M944.14,235.49l71.07-.39V249q-25.44,1.89-50.87,3.88v11.94q17-2.1,33.93-4.17v15.41q-17,3.14-33.93,6.32v29.67l-20.2,5.78Z"/><path class="cls-3" d="M1027.12,235q35.54-.18,71.08-.22v48.06c-25.13.91-46.78,5.51-71.08,11.8Zm20.21,11.7.06,29.5c9.93-2,20.39-4.69,30.6-4.62V245.18C1067.78,245.09,1057.51,246,1047.33,246.74Z"/><path class="cls-3" d="M1109.93,234.82h20.21v36.23c17,.31,34,1.05,50.93,2.56v12.12a701.12,701.12,0,0,0-71.14-3.05Z"/><path class="cls-3" d="M1193,234.93l20.21.06v55.28c-8.09-1.42-12.13-2-20.21-3.11Z"/><path class="cls-3" d="M1226.44,235q35.54.14,71.08.38v78.73a493.58,493.58,0,0,0-71.08-21.41Zm20.21,14.18.06,33.72c10.25,2.06,20.51,4.48,30.6,7.23V251.58Q1262,250.23,1246.65,249.22Z"/><path class="cls-4" d="M611.43,130.14h71.3V184.4h-51v34H611.43Zm20.27,20.27v13.77h30.76V150.41Z"/><path class="cls-4" d="M694.8,130.14h71.31v88.3H694.8Zm20.28,20.27.06,47.76h30.7V150.41Z"/><path class="cls-4" d="M777.83,130.14h71.31V184.4H827.29l21.85,21.91v12.13H828.87l-30.76-31v31H777.83Zm20.28,20.27v13.77h30.76V150.41Z"/><path class="cls-4" d="M860.86,130.14h71.31v20.27H907v68H886.82v-68h-26Z"/><path class="cls-4" d="M944.18,130.14h71.31v20.27h-51v13.77h34V184.4h-34v34H944.18Z"/><path class="cls-4" d="M1027.44,130.14h71.31v88.3h-71.31Zm20.27,20.27.06,47.76h30.71V150.41Z"/><path class="cls-4" d="M1110.53,130.14h20.27v68.15h51.09v20.27h-71.36Z"/><path class="cls-4" d="M1193.85,130.14h20.27v88.42h-20.27Z"/><path class="cls-4" d="M1227.42,130.14h71.31v88.3h-71.31Zm20.28,20.27,0,47.76h30.71V150.41Z"/><path class="cls-4" d="M606.14,826h29.12v8.28H625v27.78h-8.26V834.28h-10.6Z"/><path class="cls-4" d="M640.17,825.76h8.32v14h12.66v-14h8.32v36.3h-8.32v-14H648.49v14h-8.32Z"/><path class="cls-4" d="M674.19,826h29.12v8.28H682.47v5.62h13.9v8.25H682.8l0,5.63h20.56v8.28H674.19Z"/><path class="cls-4" d="M708.19,826H737.3v22.15h-8.92l8.92,9v5H729L716.46,849.4v12.66h-8.27Zm8.27,8.28v5.62H729v-5.62Z"/><path class="cls-4" d="M742.16,826h29.12v8.28H750.44v5.62h13.9v8.25H750.77l0,5.63h20.55v8.28H742.16Z"/><path class="cls-4" d="M776.21,826h29.07l.05,8.28H784.49v5.62h20.84v22.16H776.21v-8.28l20.84,0v-5.65H776.21Z"/><path class="cls-4" d="M810.13,826h29.12v36.06H831v-6.94H818.41v6.94h-8.28Zm8.28,8.28v12.56H831V834.28Z"/><path class="cls-4" d="M853.49,826h29.12v36.06h-8.28v-6.94H861.77v6.94h-8.28Zm8.28,8.28v12.56h12.56V834.28Z"/><path class="cls-4" d="M887.51,826h29.12v36.06h-8.28v-6.94H895.79v6.94h-8.28Zm8.28,8.28v12.56h12.56V834.28Z"/><path class="cls-4" d="M921.53,826h29.12v8.28H929.81v19.5h12.56V839.9h8.28v22.16H921.53Z"/><path class="cls-4" d="M955.46,826h29.12v36.06H976.3v-6.94H963.74v6.94h-8.28Zm8.28,8.28v12.56H976.3V834.28Z"/><path class="cls-4" d="M989.48,826h29.12v36.06h-8.28v-6.94H997.76v6.94h-8.28Zm8.28,8.28v12.56h12.56V834.28Z"/><path class="cls-4" d="M1023.48,826h29.12v22.15h-8.93l8.93,9v5h-8.28l-12.56-12.66v12.66h-8.28Zm8.28,8.28v5.62h12.56v-5.62Z"/><path class="cls-4" d="M1057.46,826H1080l6.62,6.63v22.8l-6.62,6.63h-22.49Zm8.27,8.28v19.5h12.56v-19.5Z"/><path class="cls-4" d="M1100.81,825.76h8.32v14h12.66v-14h8.33v36.3h-8.33v-14h-12.66v14h-8.32Z"/><path class="cls-4" d="M1134.83,826H1164v36.06h-8.28v-6.94h-12.56v6.94h-8.28Zm8.28,8.28v12.56h12.56V834.28Z"/><path class="cls-4" d="M1168.83,826h8.28v3.64l12.56,12.65V826H1198v36.06h-8.28v-6.94l-12.56-12.66v19.6h-8.28Z"/><path class="cls-4" d="M1202.83,826h29.07l0,8.28h-20.84v5.62H1232v22.16h-29.12v-8.28l20.84,0v-5.65h-20.84Z"/><path class="cls-4" d="M1236.75,826h29.12v8.28H1245v5.62h13.9v8.25h-13.56l0,5.63h20.55v8.28h-29.12Z"/><path class="cls-4" d="M1270.75,826H1279v3.64l12.56,12.65V826h8.28v36.06h-8.28v-6.94L1279,842.46v19.6h-8.28Z"/><path class="cls-5" d="M897.18,907.08H909.6v29.44h-6.76V913.84h-5.66Z"/><path class="cls-5" d="M913.55,930.72h5.85v5.86h-5.85Z"/><path class="cls-5" d="M931,907.08h23.73l0,6.76h-17v4.59h17v18.09H931v-6.76l17,0v-4.61H931Z"/><path class="cls-5" d="M958.7,907.08h23.77v6.76h-17v4.59h11.35v6.74H965.73l0,4.59h16.78v6.76H958.7Z"/><path class="cls-5" d="M986.42,907.08h4.39l7.56,7.49,7.5-7.49h4.32v29.44h-6.76V920.85l-4.32,4.32h-1.62l-4.32-4.32v15.67h-6.75Z"/><path class="cls-5" d="M758.5,955.08h4.39l7.56,7.49,7.5-7.49h4.32v29.44h-6.76V968.85l-4.32,4.32h-1.62l-4.32-4.32v15.67H758.5Z"/><path class="cls-5" d="M786.21,955.08H793l0,22.72h10.25V955.08H810v29.48H786.21Z"/><path class="cls-5" d="M814,955.08h6.76V977.8h17v6.76H814Z"/><path class="cls-5" d="M841.7,955.08h23.77v6.76h-8.38v22.68h-6.74V961.84H841.7Z"/><path class="cls-5" d="M869.47,955.08h6.76v29.48h-6.76Z"/><path class="cls-5" d="M880.59,955.08H885l7.56,7.49,7.5-7.49h4.32v29.44H897.6V968.85l-4.32,4.32h-1.62l-4.32-4.32v15.67h-6.75Z"/><path class="cls-5" d="M908.36,955.08h23.77v6.76h-17v4.59h11.35v6.74H915.39l0,4.59h16.78v6.76H908.36Z"/><path class="cls-5" d="M936.13,955.08h18.36l5.41,5.42v18.61l-5.41,5.41H936.13Zm6.76,6.76v15.92h10.26V961.84Z"/><path class="cls-5" d="M963.91,955.08h6.75v29.48h-6.75Z"/><path class="cls-5" d="M975.08,955.08h23.77v6.76h-17v4.59h11.34v6.74H982.11l0,4.59h16.78v6.76H975.08Z"/><path class="cls-5" d="M1002.85,955.08h18.36l5.41,5.42v18.61l-5.41,5.41h-18.36Zm6.76,6.76v15.92h10.25V961.84Z"/><path class="cls-5" d="M1030.62,955.08h23.77v6.76h-17v4.59h11.35v6.74h-11.07l0,4.59h16.77v6.76h-23.77Z"/><path class="cls-5" d="M1058.42,955.08h23.73l0,6.76h-17v4.59h17v18.09h-23.77v-6.76l17,0v-4.61h-17Z"/><path class="cls-5" d="M1086.11,955.08h6.76v29.48h-6.76Z"/><path class="cls-5" d="M1097.29,955.08h23.76v6.76h-17v15.92h10.26V966.43h6.75v18.09h-23.76Z"/><path class="cls-5" d="M1125,955.08h6.76v3L1142,968.39V955.08h6.76v29.44H1142v-5.67l-10.25-10.33v16H1125Z"/></g></svg>
