<svg id="Layer_1" data-name="Layer 1" xmlns="http://www.w3.org/2000/svg" xmlns:xlink="http://www.w3.org/1999/xlink" width="1125" height="2436" viewBox="0 0 1125 2436"><defs><style>.cls-1{fill:#fff;}.cls-2{opacity:0.4;}.cls-3,.cls-5{fill:none;stroke:#ffe6ad;stroke-miterlimit:10;}.cls-3{stroke-width:3px;}.cls-4{fill:#ffe6ad;}</style></defs><rect x="-14.22" y="-26.5" width="1138.72" height="2462"/><path class="cls-1" d="M1124-26V2435H-13.72V-26H1124m1-1H-14.72V2436H1125V-27Z"/><g class="cls-2"><image width="1216" height="2519" transform="translate(-53 -48)" xlink:href="Artboard%2011.png"/></g><path class="cls-3" d="M179.69,1106.16a527.51,527.51,0,0,0,79.43,24.65v41.31q-28.51-2.74-56.85-6.67V1197l-22.58-.16Zm22.58,27.63v12.85c11.41,2.45,22.78,4.7,34.27,6.77v-11.28Q219.28,1138.5,202.27,1133.79Z"/><path class="cls-3" d="M272.57,1133.49A655.38,655.38,0,0,0,352,1142v55.52q-39.72-.06-79.43-.19Zm22.58,18q0,16.3.07,32.61,17.1.62,34.2,1v-30.7C318,1153.61,306.58,1152.63,295.15,1151.46Z"/><path class="cls-3" d="M365.05,1142.38c26.31.25,53.58,1,79.44-4.2V1176a218.3,218.3,0,0,1-24.35,1.31c9.74,5.31,14.61,7.69,24.35,12.75v7.48c-9,0-13.55.06-22.58.06q-17.25-8.9-34.27-18.21v18.22H365.05ZM387.64,1156v8.9q17.14-.12,34.27-.51v-9.12Q404.77,1155.78,387.64,1156Z"/><path class="cls-3" d="M457.54,1135c26.61-6.84,53-14.25,79.44-21.9v19.48q-14,3.29-28,6.47v58.15l-22.52.12V1144q-14.43,3.18-28.92,6.13Z"/><path class="cls-3" d="M550.36,1109.14c26.45-7.75,52.89-15.51,79.43-22.92V1111c-19,4.24-37.92,8.65-56.85,13.11v14.67q19-3.67,37.93-7.26v24q-19,2.37-37.93,4.8v36.45l-22.58.13Z"/><path class="cls-3" d="M643.11,1082.58c27.18-7.21,51.28-12.45,79.43-13.53v127.06q-39.72,0-79.43.26Zm22.58,20.68q0,32.33.07,64.66c11.44-.8,22.73-1.54,34.2-1.79V1098C688.07,1098.82,677.38,1100.9,665.69,1103.26Z"/><path class="cls-3" d="M735.66,1068.75c9-.13,13.55-.14,22.59,0v97.5q28.47.3,56.91,1.09v29q-39.75-.07-79.5-.09Z"/><path class="cls-3" d="M828.48,1073.86c9,1.22,13.55,1.93,22.58,3.57v119l-22.58-.07Z"/><path class="cls-3" d="M865.88,1080.36A527.51,527.51,0,0,1,945.31,1105v91.81q-39.7-.28-79.43-.46Zm22.58,30.58q0,29.94.07,59.87,17.12,1.25,34.2,2.72v-54.25Q905.73,1114.57,888.46,1110.94Z"/><path class="cls-3" d="M179.69,1003.65c24.77,19.43,50.38,35.24,79.43,47.45v44c-19.69-6-38.41-14-56.85-23v32c-9-3.57-13.55-5.5-22.58-9.69Zm22.58,36.23v13a322.11,322.11,0,0,0,34.27,17.26v-11.77A306.78,306.78,0,0,1,202.27,1039.88Z"/><path class="cls-3" d="M272.57,1056A315.4,315.4,0,0,0,352,1069.41v64.81a582.37,582.37,0,0,1-79.43-9.33Zm22.58,22.14q0,18,.07,36c11.42,1.82,22.69,3.29,34.2,4.49v-35.07C317.8,1082.16,306.63,1080.39,295.15,1078.12Z"/><path class="cls-3" d="M365.05,1069.43c26.74-1,54-2.93,79.44-11.7v45.53c-9.74,3.19-14.61,3.81-24.35,4.73,9.74,5.81,14.61,8.54,24.35,12.47v9.22c-9,2.4-13.55,2.93-22.58,3.49-11.52-6.76-23-13.64-34.27-20.74v22.15c-9,.16-13.55.16-22.59,0Zm22.59,14.93V1095c11.49-.76,22.82-1.77,34.27-3v-11.15C410.46,1082.27,399.14,1083.45,387.64,1084.36Z"/><path class="cls-3" d="M457.54,1052.41c26.91-11.49,53.24-24.07,79.44-37.08v20.11q-14,6.54-28,12.88v62.55c-9,2.81-13.51,4.19-22.52,6.89v-59.5q-14.35,6.21-28.92,12Z"/><path class="cls-3" d="M550.36,1008.63c26.38-13.29,52.74-26.58,79.43-39.24v23.09c-19,8.46-38,17.21-56.85,26.07V1033q18.93-8.41,37.93-16.66v22.85q-19,7.45-37.93,15.13v36l-22.58,7.31Z"/><path class="cls-3" d="M643.11,963.25c26.6-11.87,50.5-21,79.43-24.94v115.06c-28.39,1.32-52.2,7.07-79.43,15Zm22.58,14.16q0,29.34.07,58.67c10.9-3.49,22.59-8.54,34.2-8.47v-61C688.14,967.21,676.53,973.11,665.69,977.41Z"/><path class="cls-3" d="M735.66,936.92c9-.8,13.55-1.07,22.59-1.28v89.71c19.12.43,37.93,1.72,56.91,4v27.4a672.17,672.17,0,0,0-79.5-3.64Z"/><path class="cls-3" d="M828.48,942.36a218.29,218.29,0,0,1,22.58,6.24v113.91c-9-1.81-13.55-2.6-22.58-3.94Z"/><path class="cls-3" d="M865.88,953.93c29,12.21,54.66,28,79.43,47.45v91.74a481.72,481.72,0,0,0-79.43-27.51Zm22.58,34.58q0,29.1.07,58.2a366.94,366.94,0,0,1,34.2,13.89v-53.55A307.66,307.66,0,0,0,888.46,988.51Z"/><path class="cls-3" d="M179.69,901.05c23.46,26.16,48.56,48.49,79.43,65.46v46.62a313.66,313.66,0,0,1-56.85-36v32.54c-7.77-5.56-15.37-11.58-22.58-17.84Zm22.58,43.48v13.25c11,9.23,22.11,18,34.27,25.67V971.2C224.33,963.24,213.23,954.11,202.27,944.53Z"/><path class="cls-3" d="M272.57,972.77A204.42,204.42,0,0,0,352,986.29v74.12a297.37,297.37,0,0,1-79.43-13.69Zm22.58,25q0,19.69.07,39.39c11.5,2.56,22.5,4.46,34.2,5.88v-39.44A283.85,283.85,0,0,1,295.15,997.72Z"/><path class="cls-3" d="M365.05,985.18c27.67-3.93,53.61-11.57,79.44-22.18v53.3c-9.74,4.15-14.61,5.51-24.35,7.81,9.74,5.71,14.61,8.56,24.35,12.52v11a96.46,96.46,0,0,1-22.58,6.47c-11.53-6.9-23-13.93-34.27-21.21v26.08c-9,.87-13.55,1.17-22.59,1.41Zm22.59,14.91v12.38a326.52,326.52,0,0,0,34.27-7.63V991.65A315.53,315.53,0,0,1,387.64,1000.09Z"/><path class="cls-3" d="M457.54,957.18c27.2-13,53.41-27.5,79.44-42.65v20.74c-9.31,5.35-18.61,10.69-28,15.88v67c-9,4.48-13.51,6.68-22.52,10.93V963.28c-9.57,4.9-19.15,9.78-28.92,14.28Z"/><path class="cls-3" d="M550.36,906.65C576.68,891,603,875.42,629.79,860.7v21.43c-19.14,10.39-38,21.2-56.85,32.16v14.32q18.9-10.86,37.93-21.48V928.8q-19,10.31-37.93,20.87v35.59L550.36,997Z"/><path class="cls-3" d="M643.11,853.66c25.81-13,51.67-24.33,79.43-32.54V924.18c-28.9,4.38-52.93,13.84-79.43,26Zm22.58,10.39q0,26.34.07,52.69c10.9-4.9,22.28-10.88,34.2-12.74V850.1C688.12,853.45,676.81,858.84,665.69,864.05Z"/><path class="cls-3" d="M735.66,817.85a200.07,200.07,0,0,1,22.59-3.94v81.93a313.12,313.12,0,0,1,56.91,3.52v25.78a335.7,335.7,0,0,0-79.5-2.38Z"/><path class="cls-3" d="M828.48,818a147.74,147.74,0,0,1,22.58,7.54V934.34a205.72,205.72,0,0,0-22.58-6.45Z"/><path class="cls-3" d="M865.88,832.38c30.91,17,56,39.3,79.43,65.46V989.5c-24.34-20.16-50.13-37.58-79.43-49.76Zm22.58,37.21q0,28.27.07,56.53a323.36,323.36,0,0,1,34.2,23V896.26C911.77,886.68,900.67,877.55,888.46,869.59Z"/><path class="cls-3" d="M179.69,797.56c24.21,20.05,50.12,37.94,79.43,49.75v66.42a304.61,304.61,0,0,1-56.85-38.14v37.55c-8-7.58-15.28-15.7-22.58-23.91Zm22.58,40.38v15.27a316.25,316.25,0,0,0,34.27,24.12V861A321.9,321.9,0,0,1,202.27,837.94Z"/><path class="cls-3" d="M272.57,852.38A297.76,297.76,0,0,0,352,866.06V974.45a204.46,204.46,0,0,1-79.43-13.53Zm22.58,32.27q0,29.67.07,59.34a282.67,282.67,0,0,0,34.2,5.81V890.55C317.69,889.12,306.68,887.22,295.15,884.65Z"/><path class="cls-3" d="M365.05,866c26.84-1.26,54-3.68,79.44-12.74v61.5a152,152,0,0,1-24.35,8.38,146.24,146.24,0,0,0,24.35,15.26v12.79c-9,3.87-13.55,5.62-22.58,8.72-12.26-7.67-23.32-16.65-34.27-26v35.72a196.75,196.75,0,0,1-22.59,3.77Zm22.59,23.58v16.67c11.59-1.81,22.82-4,34.27-6.53v-16C410.46,886.05,399.21,888,387.64,889.57Z"/><path class="cls-3" d="M457.54,847.8C484.48,836,510.8,823,537,809.61V831.2q-13.93,7.53-28,14.86v72.73c-9,5-13.51,7.5-22.52,12.23V857.47q-14.29,7.1-28.92,13.61Z"/><path class="cls-3" d="M550.36,802.69c26.37-13.71,52.73-27.43,79.43-40.49v19.34c-19.1,9.75-38,19.86-56.85,30.09v14.08q18.91-10.53,37.93-20.87V825q-19.05,10.6-37.93,21.48v35l-22.58,13.39Z"/><path class="cls-3" d="M643.11,755.88c26.5-12.16,50.53-21.62,79.43-26v79.42c-27.76,8.2-53.62,19.49-79.43,32.53Zm22.58,8.48q0,23,.07,45.94c11.09-5.2,22.38-10.57,34.2-13.91V751.6C688,753.46,676.61,759.45,665.69,764.36Z"/><path class="cls-3" d="M735.66,728.32c9-.91,13.55-1.22,22.59-1.51v57.32a254.92,254.92,0,0,1,56.91,2V803.4c-27.41-3.87-52.37-2.57-79.5,2.75Z"/><path class="cls-3" d="M828.48,733.45a205.72,205.72,0,0,1,22.58,6.45v74a148.78,148.78,0,0,0-22.58-7.53Z"/><path class="cls-3" d="M865.88,745.44C895.17,757.62,921,775,945.31,795.19V886c-23.47-26.16-48.52-48.45-79.43-65.44Zm22.58,28.25q0,21.12.07,42.24c12.18,8,23.26,17.06,34.2,26.61V796.71A321.9,321.9,0,0,0,888.46,773.69Z"/><path class="cls-3" d="M179.69,694a483.47,483.47,0,0,0,79.43,27.48v69.08c-19.88-6.74-38.54-15.73-56.85-25.91v38c-7.75-5.28-15.35-11-22.58-17Zm22.58,32.5v15.48a346.3,346.3,0,0,0,34.27,15.29V740.36A367.26,367.26,0,0,1,202.27,726.45Z"/><path class="cls-3" d="M272.57,724.4A583.93,583.93,0,0,0,352,733.72V851.41A315.39,315.39,0,0,1,272.57,838Zm22.58,31.12q0,31.37.07,62.72c11.45,2.26,22.61,4,34.2,5.41V760C317.89,758.83,306.6,757.35,295.15,755.52Z"/><path class="cls-3" d="M365.05,734.09c26.31.19,53.68.8,79.44-4.9v69.26c-9.74,3.47-14.61,4.22-24.35,5.38,7.57,7.58,15.12,15.75,24.35,21.39v14.53a92.64,92.64,0,0,1-22.58,6.15c-12-11.16-23.33-23.08-34.27-35.29v39.65c-9,.76-13.55,1-22.59,1.18Zm22.59,27.54v18.42c11.47-.56,22.83-1.35,34.27-2.35v-18C410.47,760.54,399.1,761.19,387.64,761.63Z"/><path class="cls-3" d="M457.54,725.64c26.64-7.52,53.07-15.69,79.44-24.11v22.22q-14,5.18-28,10.22v77.15c-9,4.33-13.51,6.47-22.52,10.6V741.9q-14.4,5-28.92,9.6Z"/><path class="cls-3" d="M550.36,697.23c26.44-8.55,52.87-17.09,79.43-25.26v17.68c-19,6.68-37.94,13.68-56.85,20.71v13.91q18.93-7.65,37.93-15.12v18.92q-19,8.19-37.93,16.65v34.57l-22.58,11.37Z"/><path class="cls-3" d="M643.11,668c27.23-8,51-13.7,79.43-15v67.42c-28.93,3.94-52.83,13.07-79.43,24.93Zm22.58,9.6q0,20,.07,40c10.81-4.29,22.4-10.17,34.2-10.81V669.08C688.33,669,676.61,674.08,665.69,677.57Z"/><path class="cls-3" d="M735.66,652.56c9-.18,13.55-.2,22.59-.07V702a411.93,411.93,0,0,1,56.91,4.21v15.6a356.55,356.55,0,0,0-79.5-2.76Z"/><path class="cls-3" d="M828.48,658c9,1.35,13.55,2.13,22.58,3.94v68.83a215.82,215.82,0,0,0-22.58-6.24Z"/><path class="cls-3" d="M865.88,665.18a483.47,483.47,0,0,1,79.43,27.48v90.76C920.54,764,894.92,748.2,865.88,736Zm22.58,23q0,20.28.07,40.54a311.37,311.37,0,0,1,34.2,18.5V702.05Q906,694.25,888.46,688.15Z"/><path class="cls-3" d="M179.69,590.24q39.7.27,79.43.43v71.74c-19.09-2.81-38-6.2-56.85-10.25V690.7c-9-3.18-13.55-4.9-22.58-8.65Zm22.58,23.28V629.2c11.42,1.59,22.82,3,34.27,4.38V616.23Q219.38,615,202.27,613.52Z"/><path class="cls-3" d="M272.57,590.72q39.71.12,79.43.17v127a653.37,653.37,0,0,1-79.43-8.52Zm22.58,28.61q0,33,.07,66.09c11.4,1.17,22.76,2.14,34.2,3v-68Q312.27,619.93,295.15,619.33Z"/><path class="cls-3" d="M365.05,590.9c26.48,0,53,.05,79.44,0v77a151.54,151.54,0,0,1-24.35,2c7.74,9.67,15.47,19.22,24.35,27.88V714a102,102,0,0,1-22.58,3.12c-11.68-14-23.06-28.12-34.27-42.45V718.3c-9,.11-13.55.1-22.59-.06ZM387.64,621v20.16q17.13,0,34.27-.24v-20Q404.77,621,387.64,621Z"/><path class="cls-3" d="M457.54,590.79l79.44-.42v22.85q-14,1.11-28,2.19V697c-9,2.54-13.51,3.79-22.52,6.24V617.13q-14.46,1.08-28.92,2.09Z"/><path class="cls-3" d="M550.36,590.3l79.43-.43v16q-28.42,2.18-56.85,4.45v13.73q19-2.42,37.93-4.78V637q-19,3.57-37.93,7.24v34.14L550.36,685Z"/><path class="cls-3" d="M643.11,589.8q39.72-.19,79.43-.24V645c-28.14,1.07-52.25,6.31-79.43,13.52Zm22.58,13.47q0,17,.07,34c11.66-2.34,22.33-4.41,34.2-5.28v-30.5C688.47,601.74,677.16,602.47,665.69,603.27Z"/><path class="cls-3" d="M735.66,589.56h22.59v41.76c19,.45,37.94,1.4,56.91,2.93v14a761.58,761.58,0,0,0-79.5-3.47Z"/><path class="cls-3" d="M828.48,589.68l22.58.07v63.7c-9-1.64-13.55-2.35-22.58-3.58Z"/><path class="cls-3" d="M865.88,589.8q39.72.16,79.43.43v90.68a528.59,528.59,0,0,0-79.43-24.63Zm22.58,16.33q0,19.43.07,38.85,17.22,3.62,34.2,8.31V608.85Q905.6,607.37,888.46,606.13Z"/><path class="cls-4" d="M181.25,446.63h79.43V523.5H203.83v48.23H181.25Zm22.58,28.72v19.51H238.1V475.35Z"/><path class="cls-4" d="M274.12,446.63h79.43v125.1H274.12Zm22.58,28.72.07,67.66H331V475.35Z"/><path class="cls-4" d="M366.6,446.63H446V523.5H421.68l24.34,31v17.19H423.44l-34.26-43.91v43.91H366.6Zm22.58,28.72v19.51h34.26V475.35Z"/><path class="cls-4" d="M459.08,446.63H538.5v28.72h-28v96.38H488V475.35H459.08Z"/><path class="cls-4" d="M551.88,446.63H631.3v28.72H574.46v19.51h37.92V523.5H574.46v48.23H551.88Z"/><path class="cls-4" d="M644.62,446.63H724v125.1H644.62Zm22.58,28.72.06,67.66h34.2V475.35Z"/><path class="cls-4" d="M737.16,446.63h22.58v96.54h56.91v28.72H737.16Z"/><path class="cls-4" d="M830,446.63h22.58V571.89H830Z"/><path class="cls-4" d="M867.36,446.63h79.42v125.1H867.36Zm22.58,28.72L890,543h34.2V475.35Z"/><path class="cls-4" d="M92.67,1658h39.21v14.18H118.06v47.57H106.94v-47.57H92.67Z"/><path class="cls-4" d="M138.48,1657.59H149.7v24h17v-24H178v62.16H166.74v-24h-17v24H138.48Z"/><path class="cls-4" d="M184.3,1658h39.21v14.18H195.45v9.63h18.72V1696H195.9l-.07,9.63h27.68v14.17H184.3Z"/><path class="cls-4" d="M230.08,1658h39.21v38h-12l12,15.32v8.48H258.14l-16.91-21.67v21.67H230.08Zm11.15,14.18v9.63h16.91v-9.63Z"/><path class="cls-4" d="M275.83,1658H315v14.18H287v9.63H305.7V1696H287.43l-.06,9.63H315v14.17H275.83Z"/><path class="cls-4" d="M321.68,1658h39.15l.06,14.18H332.83v9.63h28.06v37.94H321.68v-14.17l28.06,0V1696H321.68Z"/><path class="cls-4" d="M367.37,1658h39.21v61.75H395.43v-11.88H378.51v11.88H367.37Zm11.14,14.18v21.51h16.92v-21.51Z"/><path class="cls-4" d="M425.75,1658H465v61.75H453.81v-11.88H436.89v11.88H425.75Zm11.14,14.18v21.51h16.92v-21.51Z"/><path class="cls-4" d="M471.56,1658h39.21v61.75H499.62v-11.88H482.71v11.88H471.56Zm11.15,14.18v21.51h16.91v-21.51Z"/><path class="cls-4" d="M517.38,1658h39.21v14.18H528.52v33.4h16.92v-23.77h11.15v37.94H517.38Z"/><path class="cls-4" d="M563.06,1658h39.21v61.75H591.12v-11.88H574.21v11.88H563.06Zm11.15,14.18v21.51h16.91v-21.51Z"/><path class="cls-4" d="M608.88,1658h39.21v61.75H636.94v-11.88H620v11.88H608.88ZM620,1672.18v21.51h16.92v-21.51Z"/><path class="cls-4" d="M654.66,1658h39.21v38h-12l12,15.32v8.48H682.72l-16.91-21.67v21.67H654.66Zm11.15,14.18v9.63h16.91v-9.63Z"/><path class="cls-4" d="M700.41,1658H730.7l8.92,11.35v39.05l-8.92,11.35H700.41Zm11.15,14.18v33.4h16.91v-33.4Z"/><path class="cls-4" d="M758.79,1657.59H770v24h17v-24h11.21v62.16H787.05v-24H770v24H758.79Z"/><path class="cls-4" d="M804.61,1658h39.21v61.75H832.67v-11.88H815.75v11.88H804.61Zm11.14,14.18v21.51h16.92v-21.51Z"/><path class="cls-4" d="M850.39,1658h11.15v6.23l16.91,21.68V1658H889.6v61.75H878.45v-11.88l-16.91-21.68v33.56H850.39Z"/><path class="cls-4" d="M896.17,1658h39.15l.06,14.18H907.32v9.63h28.06v37.94H896.17v-14.17l28.07,0V1696H896.17Z"/><path class="cls-4" d="M941.86,1658h39.21v14.18H953v9.63h18.72V1696H953.46l-.07,9.63h27.68v14.17H941.86Z"/><path class="cls-4" d="M987.64,1658h11.15v6.23l16.92,21.68V1658h11.14v61.75h-11.14v-11.88l-16.92-21.68v33.56H987.64Z"/><path class="cls-5" d="M473.93,1808.32h18.93v57.08h-10.3v-44h-8.63Z"/><path class="cls-5" d="M498.88,1854.15h8.93v11.36h-8.93Z"/><path class="cls-5" d="M525.5,1808.32h36.18l.06,13.11H535.8v8.9h25.94v35.07H525.5v-13.11l25.94,0v-8.94H525.5Z"/><path class="cls-5" d="M567.73,1808.32H604v13.11H578v8.9h17.3v13.06H578.45l-.06,8.9H604v13.11H567.73Z"/><path class="cls-5" d="M610,1808.32h6.7l11.53,14.51,11.43-14.51h6.58v57.08h-10.3V1835l-6.58,8.37h-2.47l-6.58-8.37v30.38H610Z"/><path class="cls-5" d="M262.49,1901.4h6.7l11.52,14.51,11.44-14.51h6.58v57.08H288.42v-30.37l-6.58,8.37h-2.47l-6.58-8.37v30.37h-10.3Z"/><path class="cls-5" d="M304.74,1901.4H315l0,44h15.64v-44H341v57.16H304.74Z"/><path class="cls-5" d="M347.09,1901.4h10.3v44h26v13.11H347.09Z"/><path class="cls-5" d="M389.34,1901.4h36.24v13.11H412.81v44H402.53v-44H389.34Z"/><path class="cls-5" d="M431.69,1901.4H442v57.16h-10.3Z"/><path class="cls-5" d="M448.63,1901.4h6.7l11.52,14.51,11.44-14.51h6.58v57.08h-10.3v-30.37l-6.59,8.37h-2.47l-6.58-8.37v30.37h-10.3Z"/><path class="cls-5" d="M491,1901.4h36.24v13.11H501.28v8.9h17.3v13.07H501.69l-.06,8.9h25.58v13.1H491Z"/><path class="cls-5" d="M533.32,1901.4h28l8.25,10.5V1948l-8.25,10.49h-28Zm10.3,13.11v30.87h15.63v-30.87Z"/><path class="cls-5" d="M575.66,1901.4H586v57.16h-10.3Z"/><path class="cls-5" d="M592.7,1901.4h36.23v13.11H603v8.9h17.3v13.07H603.42l-.06,8.9h25.57v13.1H592.7Z"/><path class="cls-5" d="M635,1901.4h28l8.25,10.5V1948L663,1958.48H635Zm10.3,13.11v30.87H661v-30.87Z"/><path class="cls-5" d="M677.38,1901.4h36.24v13.11H687.69v8.9H705v13.07H688.1l-.06,8.9h25.58v13.1H677.38Z"/><path class="cls-5" d="M719.76,1901.4h36.18l.06,13.11H730.06v8.9H756v35.07H719.76v-13.1l25.94,0v-8.93H719.76Z"/><path class="cls-5" d="M762,1901.4h10.31v57.16H762Z"/><path class="cls-5" d="M779,1901.4h36.24v13.11H789.32v30.87H805v-22h10.31v35.07H779Z"/><path class="cls-5" d="M821.21,1901.4h10.31v5.76l15.63,20v-25.8h10.3v57.08h-10.3v-11l-15.63-20v31H821.21Z"/></svg>
