<svg id="Layer_1" data-name="Layer 1" xmlns="http://www.w3.org/2000/svg" width="1920" height="1080" viewBox="0 0 1920 1080"><defs><style>.cls-1{fill:none;stroke:#ffe6ad;stroke-miterlimit:10;stroke-width:2px;}.cls-2{fill:#ffe6ad;}</style></defs><path class="cls-1" d="M720.94,395.48c-4.17-14.82-9.73-30.11-14.83-38.45-7.41-12.51-12.05-15.75-37.53-15.75H622.25V566.91c0,36.14,3.71,41.24,47.72,44v13H535.14v-13c43.09-2.78,46.8-7.41,46.8-44V341.28H539.78c-25.49,0-32.9,2.78-40.78,16.68-5.56,9.26-9.26,20.38-15.28,37.52h-13.9c2.78-28.26,5.56-57.45,6.95-83.39h10.65c6.95,11.12,12.05,10.65,25,10.65H695.92c13,0,16.68-1.85,23.63-10.65h11.11c0,21.77,1.86,55.13,4.18,82Z"/><path class="cls-2" d="M793.58,447.61c-4.17-14.83-9.73-30.12-14.83-38.46-7.41-12.51-12-15.75-37.53-15.75H694.89V619c0,36.14,3.71,41.23,47.72,44v13H607.78v-13c43.09-2.78,46.8-7.41,46.8-44V393.4H612.42c-25.49,0-32.9,2.78-40.78,16.68-5.56,9.27-9.26,20.39-15.28,37.53h-13.9c2.78-28.26,5.55-57.46,6.95-83.4h10.65c7,11.12,12.05,10.66,25,10.66H768.56c13,0,16.68-1.86,23.63-10.66H803.3c0,21.78,1.86,55.14,4.18,82Z"/><path class="cls-2" d="M351.78,714.05a26.55,26.55,0,0,0-2.24-5.81c-1.12-1.9-1.82-2.39-5.68-2.39h-7V740c0,5.47.56,6.24,7.21,6.66v2H323.69v-2c6.52-.42,7.08-1.12,7.08-6.66V705.85h-6.38c-3.85,0-5,.42-6.16,2.53a32,32,0,0,0-2.31,5.67h-2.1c.42-4.27.84-8.69,1.05-12.61h1.61c1,1.68,1.82,1.61,3.78,1.61H348c2,0,2.52-.28,3.57-1.61h1.68c0,3.29.28,8.34.63,12.4Z"/><path class="cls-2" d="M408.37,705c-5.82.56-6.38.91-6.38,6.8v28.08c0,5.89.63,6.1,6.38,6.73v2H389.6v-2c5.81-.7,6.37-.84,6.37-6.73v-14H372v14c0,5.82.56,6,6.3,6.73v2h-18.7v-2c5.67-.63,6.3-.84,6.3-6.73V711.81c0-5.89-.63-6.24-6.3-6.8v-2h18.7v2c-5.6.49-6.3,1-6.3,6.8v11.13h24V711.81c0-5.82-.77-6.31-6.37-6.8v-2h18.77Z"/><path class="cls-2" d="M451.79,737.44c-.42,1.82-2.31,9-3,11.14h-34v-2c6.51-.49,7-1.12,7-6.87V712.09c0-6.24-.77-6.59-6-7.08v-2h21.43c6.58,0,9.32-.07,10.16-.14.07,1.75.35,7,.63,10.72l-2.1.35a23.28,23.28,0,0,0-2.11-5.32c-1.12-2.32-2.73-2.81-6.93-2.81h-6.65c-2.17,0-2.31.21-2.31,2.25v15.47h7.77c5.25,0,5.6-1.05,6.44-5.81h2.17v14.43h-2.17c-.91-5-1.47-5.74-6.51-5.74h-7.7v13.93c0,4.91,1.54,5.33,5,5.4h6.51c4.27,0,5-.63,6.52-2.46a30,30,0,0,0,3.78-6.44Z"/><path class="cls-2" d="M498.22,749.14c-.91,0-1.68-.07-2.59-.14-5.11-.35-7.84-1.68-10.92-6-2.6-3.57-5.12-8-7.36-11.55-1.4-2.24-2.31-2.66-5.88-2.66H469v11c0,6,.77,6.31,6.37,6.87v2h-18.7v-2c5.81-.63,6.3-.91,6.3-6.87V711.81c0-6-.77-6.17-6.3-6.8v-2h17.86c5.11,0,8.54.63,11.21,2.38a10.48,10.48,0,0,1,4.76,9.25c0,6-3.85,9.8-9,12.05,1.26,2.17,4.28,6.86,6.38,10a65.59,65.59,0,0,0,5.53,7.22,10.08,10.08,0,0,0,5.11,3.22Zm-25.84-22.76c3.64,0,5.95-.57,7.7-2,2.73-2,3.85-4.83,3.85-8.61,0-7.49-5-10.23-10.36-10.23-2,0-3.22.28-3.71.7s-.84,1.19-.84,3v17.16Z"/><path class="cls-2" d="M537.3,737.44c-.42,1.82-2.31,9-3,11.14h-34v-2c6.52-.49,7-1.12,7-6.87V712.09c0-6.24-.78-6.59-6-7.08v-2h21.43c6.59,0,9.32-.07,10.16-.14.07,1.75.35,7,.63,10.72l-2.1.35a23.32,23.32,0,0,0-2.1-5.32c-1.12-2.32-2.73-2.81-6.94-2.81h-6.65c-2.17,0-2.31.21-2.31,2.25v15.47h7.77c5.26,0,5.61-1.05,6.45-5.81h2.17v14.43h-2.17c-.91-5-1.47-5.74-6.52-5.74h-7.7v13.93c0,4.91,1.54,5.33,5,5.4h6.51c4.28,0,5-.63,6.52-2.46a30,30,0,0,0,3.78-6.44Z"/><path class="cls-2" d="M566.51,713.7c-1.2-4.62-3.16-9.18-9.74-9.18-5.46,0-7.35,4-7.35,7.64,0,4.83,3.08,7.28,8.89,10.29,8.41,4.34,12.05,7.57,12.05,14.22,0,7.35-6.38,13-15.41,13a29.26,29.26,0,0,1-10.72-2.31,95.77,95.77,0,0,1-1.89-10.51l2.17-.56c1.4,4.69,4.49,10.79,11.77,10.79A7.7,7.7,0,0,0,564.4,739c0-5.39-2.87-7.56-9-10.92-7.35-4-11.49-7.36-11.49-13.87,0-6.23,5.19-12.12,14.43-12.12a44.94,44.94,0,0,1,9.25,1.33c.28,2.52.56,5.33,1.12,9.88Z"/><path class="cls-2" d="M603.55,748.58v-2c4.56-.56,5.12-1.26,4.14-3.93s-2.31-6.23-3.79-10.64H588.78c-1.12,3.15-2.18,5.88-3.16,8.75-1.54,4.56-.56,5.12,5.19,5.82v2H574.63v-2c4.41-.56,5.53-1,8-7.36l14.5-36.77,2.24-.42c4.41,12,9.25,25.22,13.66,37.33,2.24,6.1,2.87,6.66,7.84,7.22v2Zm-7-37.33c-2.24,6-4.62,12.39-6.72,17.93h13.09Z"/><path class="cls-2" d="M662.52,748.58v-2c4.56-.56,5.12-1.26,4.14-3.93s-2.32-6.23-3.79-10.64H647.75c-1.13,3.15-2.18,5.88-3.16,8.75-1.54,4.56-.56,5.12,5.19,5.82v2H633.6v-2c4.41-.56,5.53-1,8-7.36l14.5-36.77,2.24-.42c4.41,12,9.25,25.22,13.66,37.33,2.24,6.1,2.87,6.66,7.84,7.22v2Zm-7-37.33c-2.24,6-4.62,12.39-6.72,17.93h13.09Z"/><path class="cls-2" d="M708.75,748.58v-2c4.55-.56,5.11-1.26,4.13-3.93s-2.31-6.23-3.78-10.64H694c-1.12,3.15-2.17,5.88-3.15,8.75-1.54,4.56-.56,5.12,5.18,5.82v2H679.82v-2c4.41-.56,5.53-1,8-7.36l14.5-36.77,2.24-.42c4.42,12,9.25,25.22,13.66,37.33,2.24,6.1,2.87,6.66,7.85,7.22v2Zm-7-37.33c-2.24,6-4.62,12.39-6.72,17.93h13.1Z"/><path class="cls-2" d="M774.16,729.46c-4.34.56-4.62,1-4.62,5.11v5.88a38.6,38.6,0,0,0,.42,6.66c-4.35,1-10,2.52-15.9,2.52-15.9,0-25.57-9.88-25.57-24,0-14.77,12-23.6,26.06-23.6a71.77,71.77,0,0,1,14.57,1.75c.14,2.59.49,6.87,1,11.28l-2.1.42c-1.68-5.95-3.72-8.48-8.13-9.95a23.59,23.59,0,0,0-6.51-.91c-10.72,0-17.65,7.36-17.65,20.17,0,11.14,5.74,22.21,19.33,22.21a14,14,0,0,0,5.95-1.19c1.47-.85,2.38-1.62,2.38-4.49v-5.74c0-5.11-.56-5.67-7.28-6.16v-2h18Z"/><path class="cls-2" d="M806.09,748.58v-2c4.56-.56,5.12-1.26,4.14-3.93s-2.32-6.23-3.79-10.64H791.32c-1.13,3.15-2.18,5.88-3.16,8.75-1.54,4.56-.56,5.12,5.19,5.82v2H777.17v-2c4.41-.56,5.53-1,8-7.36l14.5-36.77,2.24-.42c4.41,12,9.25,25.22,13.66,37.33,2.24,6.1,2.87,6.66,7.84,7.22v2Zm-7-37.33c-2.24,6-4.62,12.39-6.72,17.93h13.09Z"/><path class="cls-2" d="M852.32,748.58v-2c4.55-.56,5.11-1.26,4.13-3.93s-2.31-6.23-3.78-10.64H837.54c-1.12,3.15-2.17,5.88-3.15,8.75-1.54,4.56-.56,5.12,5.18,5.82v2H823.39v-2c4.41-.56,5.53-1,8-7.36l14.49-36.77,2.24-.42c4.42,12,9.25,25.22,13.66,37.33,2.24,6.1,2.87,6.66,7.85,7.22v2Zm-7-37.33c-2.24,6-4.62,12.39-6.72,17.93h13.1Z"/><path class="cls-2" d="M914,749.14c-.91,0-1.68-.07-2.59-.14-5.12-.35-7.85-1.68-10.93-6-2.59-3.57-5.11-8-7.35-11.55-1.4-2.24-2.31-2.66-5.89-2.66h-2.45v11c0,6,.77,6.31,6.38,6.87v2h-18.7v-2c5.81-.63,6.3-.91,6.3-6.87V711.81c0-6-.77-6.17-6.3-6.8v-2h17.86c5.11,0,8.54.63,11.2,2.38a10.48,10.48,0,0,1,4.76,9.25c0,6-3.85,9.8-9,12.05,1.26,2.17,4.27,6.86,6.37,10a64.15,64.15,0,0,0,5.54,7.22,10.08,10.08,0,0,0,5.11,3.22ZM888.1,726.38c3.65,0,6-.57,7.71-2,2.73-2,3.85-4.83,3.85-8.61,0-7.49-5-10.23-10.36-10.23-2,0-3.23.28-3.72.7s-.84,1.19-.84,3v17.16Z"/><path class="cls-2" d="M936.15,703.05c9.87,0,16.11,2,20.45,6.1a20.25,20.25,0,0,1,5.95,15c0,8.2-3.36,14.85-8.75,18.91s-12.12,5.54-20.73,5.54H916.68v-2c6-.56,6.3-1,6.3-6.8V711.88c0-6-.84-6.31-6.3-6.87v-2Zm-7.07,36.21c0,5.25,2.24,6.73,7.49,6.73,12.61,0,19-8.62,19-20.88,0-7.63-2.59-13.44-8.12-16.8-3.23-2-7.29-2.81-12-2.81-3.15,0-4.83.42-5.53,1s-.91,1.19-.91,3.93Z"/></svg>
