<svg id="Layer_2" data-name="Layer 2" xmlns="http://www.w3.org/2000/svg" xmlns:xlink="http://www.w3.org/1999/xlink" width="1920" height="1080" viewBox="0 0 1920 1080"><defs><style>.cls-1,.cls-4{stroke-miterlimit:10;}.cls-1{fill:url(#radial-gradient);stroke:url(#New_Gradient_Swatch_2);}.cls-2{fill:url(#New_Gradient_Swatch_2-2);}.cls-3{fill:url(#radial-gradient-2);}.cls-4{fill:url(#radial-gradient-3);stroke:url(#New_Gradient_Swatch_2-3);}.cls-5{fill:url(#New_Gradient_Swatch_2-4);}</style><radialGradient id="radial-gradient" cx="961.68" cy="1501.92" r="601.94" gradientTransform="matrix(0.92, -0.4, 0.09, 0.22, -62.82, 567.21)" gradientUnits="userSpaceOnUse"><stop offset="0.07" stop-color="#534741"/><stop offset="0.11" stop-color="#a57c52"/><stop offset="0.19" stop-color="#42210b"/><stop offset="0.46" stop-color="#736357"/><stop offset="0.51" stop-color="#42210b"/><stop offset="0.74" stop-color="#a57c52"/><stop offset="0.91" stop-color="#a57c52"/><stop offset="0.98" stop-color="#736357"/></radialGradient><radialGradient id="New_Gradient_Swatch_2" cx="961.68" cy="1501.92" r="602.44" gradientTransform="matrix(0.92, -0.4, 0.09, 0.22, -62.82, 567.21)" gradientUnits="userSpaceOnUse"><stop offset="0"/><stop offset="0.06" stop-color="#030100"/><stop offset="0.1" stop-color="#0c0602"/><stop offset="0.14" stop-color="#1c0e05"/><stop offset="0.17" stop-color="#311908"/><stop offset="0.19" stop-color="#42210b"/><stop offset="0.2" stop-color="#534741"/><stop offset="0.33" stop-color="#a57c52"/><stop offset="0.46" stop-color="#736357"/><stop offset="0.74" stop-color="#a57c52"/><stop offset="0.75" stop-color="#42210b"/><stop offset="0.91" stop-color="#a57c52"/><stop offset="0.98" stop-color="#736357"/></radialGradient><radialGradient id="New_Gradient_Swatch_2-2" cx="961.68" cy="1501.92" r="806.47" xlink:href="#New_Gradient_Swatch_2"/><radialGradient id="radial-gradient-2" cx="969.57" cy="123.51" r="732.14" gradientTransform="matrix(0, 0.91, -1.33, 0, 1137.09, -706.87)" gradientUnits="userSpaceOnUse"><stop offset="0.02" stop-color="#42210b"/><stop offset="0.18" stop-color="#ffbe4c"/><stop offset="0.33" stop-color="#a57c52"/><stop offset="0.51" stop-color="#ffe16b"/><stop offset="0.61" stop-color="#42210b"/><stop offset="0.7" stop-color="#a57c52"/><stop offset="0.74" stop-color="#a57c52"/><stop offset="0.84" stop-color="#ffbe4c"/><stop offset="0.98" stop-color="#736357"/></radialGradient><radialGradient id="radial-gradient-3" cx="965.19" cy="1486.09" r="601.94" gradientTransform="matrix(0.92, -0.4, 0.11, 0.24, -90.06, 505.04)" xlink:href="#radial-gradient"/><radialGradient id="New_Gradient_Swatch_2-3" cx="965.19" cy="1486.35" r="602.3" gradientTransform="matrix(0.92, -0.4, 0.11, 0.24, -90.06, 505.04)" xlink:href="#New_Gradient_Swatch_2"/><radialGradient id="New_Gradient_Swatch_2-4" cx="965.19" cy="1486.09" r="806.47" gradientTransform="matrix(0.92, -0.4, 0.11, 0.24, -90.06, 505.04)" xlink:href="#New_Gradient_Swatch_2"/></defs><path class="cls-1" d="M1445.86,232.18c-34.54-3.3-80.38.23-136.24,10.49s-118.93,26.73-187.45,49c-70.93,23-144.64,51.21-219.07,83.83S758,443.13,693,479.68C630.18,515,575.32,550.19,529.91,584.3s-79.08,65.42-100.07,93.05c-21.74,28.61-28.86,52-21.18,69.54s29.71,28.15,65.48,31.57c34.54,3.29,80.38-.24,136.24-10.5s118.93-26.72,187.45-49c70.93-23,144.64-51.21,219.07-83.82S1162,567.5,1227,531c62.78-35.3,117.64-70.5,163-104.62s79.08-65.42,100.07-93.05c21.74-28.61,28.86-52,21.18-69.53S1481.63,235.59,1445.86,232.18ZM1005.74,609.72C761,717,542.06,757.16,516.8,699.51S669.48,508.17,914.26,400.92s463.68-147.45,488.94-89.79S1250.52,502.47,1005.74,609.72Z"/><path class="cls-2" d="M883.76,331.32C475.81,510.07,179.22,732.87,221.33,829s406.95,29.09,814.91-149.66,704.54-401.55,662.43-497.64S1291.72,152.57,883.76,331.32Zm615.19-.89c-21.34,28.09-55.57,59.92-101.73,94.59s-101.93,70.46-165.76,106.36c-66.08,37.16-138,72.81-213.61,106s-150.6,61.82-222.71,85.21c-69.66,22.6-133.77,39.34-190.55,49.77s-103.39,14-138.5,10.66c-36.36-3.47-58.76-14.27-66.57-32.09s-.56-41.6,21.53-70.69c21.34-28.09,55.57-59.91,101.73-94.59s101.93-70.46,165.76-106.35c66.08-37.16,138-72.81,213.61-106s150.6-61.82,222.71-85.21c69.66-22.59,133.77-39.34,190.55-49.76s103.39-14,138.5-10.67c36.36,3.47,58.76,14.27,66.57,32.09S1521,301.35,1499,330.43Z"/><g id="Layer_1" data-name="Layer 1"><ellipse class="cls-3" cx="960" cy="516.69" rx="343.37" ry="312.41" transform="translate(-126.66 428.7) rotate(-23.66)"/></g><path class="cls-4" d="M1399.75,302.73c.19,70.18-167,198-394.3,297.56S570.87,736.16,519.4,688.46L410.63,736.11c11.78,12.75,31.88,21.34,60,25.62,35.46,5.4,82.12,3.75,138.69-4.9S729.53,733,798.44,711.65c71.34-22.09,145.25-49.83,219.68-82.44s144.93-68.15,209.53-105.62c62.4-36.19,116.7-72.66,161.4-108.39s77.55-68.92,97.62-98.64c15.93-23.59,23.23-44.19,21.85-61.49Z"/><path class="cls-5" d="M1517.7,251.05c1.5,17.64-5.92,38.67-22.19,62.77-20.41,30.22-53.8,64-99.24,100.28s-100.64,73.39-164.07,110.18c-65.68,38.1-137.35,74.22-213,107.37S868.39,693,795.87,715.46c-70,21.69-134.73,37.15-192.23,45.93s-104.94,10.46-141,5c-28.75-4.37-49.24-13.17-61.2-26.23L222.71,818.45c71.55,91,426.81,32,817.37-139.14S1714.85,287,1696.45,172.73Z"/></svg>
