<svg id="Layer_2" data-name="Layer 2" xmlns="http://www.w3.org/2000/svg" xmlns:xlink="http://www.w3.org/1999/xlink" width="1920" height="1080" viewBox="0 0 1920 1080"><defs><style>.cls-1,.cls-4{stroke-miterlimit:10;}.cls-1{fill:url(#radial-gradient);stroke:url(#New_Gradient_Swatch_2);}.cls-2{fill:url(#New_Gradient_Swatch_2-2);}.cls-3{fill:url(#radial-gradient-2);}.cls-4{fill:url(#radial-gradient-3);stroke:url(#New_Gradient_Swatch_2-3);}.cls-5{fill:url(#New_Gradient_Swatch_2-4);}</style><radialGradient id="radial-gradient" cx="961.68" cy="1501.92" r="601.94" gradientTransform="matrix(0.92, 0.39, -0.09, 0.22, 223.57, -199.18)" gradientUnits="userSpaceOnUse"><stop offset="0.07" stop-color="#534741"/><stop offset="0.11" stop-color="#a57c52"/><stop offset="0.19" stop-color="#42210b"/><stop offset="0.46" stop-color="#736357"/><stop offset="0.51" stop-color="#42210b"/><stop offset="0.74" stop-color="#a57c52"/><stop offset="0.91" stop-color="#a57c52"/><stop offset="0.98" stop-color="#736357"/></radialGradient><radialGradient id="New_Gradient_Swatch_2" cx="961.68" cy="1501.92" r="602.44" gradientTransform="matrix(0.92, 0.39, -0.09, 0.22, 223.57, -199.18)" gradientUnits="userSpaceOnUse"><stop offset="0"/><stop offset="0.06" stop-color="#030100"/><stop offset="0.1" stop-color="#0c0602"/><stop offset="0.14" stop-color="#1c0e05"/><stop offset="0.17" stop-color="#311908"/><stop offset="0.19" stop-color="#42210b"/><stop offset="0.2" stop-color="#534741"/><stop offset="0.33" stop-color="#a57c52"/><stop offset="0.46" stop-color="#736357"/><stop offset="0.74" stop-color="#a57c52"/><stop offset="0.75" stop-color="#42210b"/><stop offset="0.91" stop-color="#a57c52"/><stop offset="0.98" stop-color="#736357"/></radialGradient><radialGradient id="New_Gradient_Swatch_2-2" cx="961.68" cy="1501.92" r="806.47" xlink:href="#New_Gradient_Swatch_2"/><radialGradient id="radial-gradient-2" cx="969.57" cy="123.51" r="732.14" gradientTransform="translate(2183.54 689.54) rotate(180) scale(0.91 1.33)" gradientUnits="userSpaceOnUse"><stop offset="0.02" stop-color="#42210b"/><stop offset="0.18" stop-color="#ffbe4c"/><stop offset="0.33" stop-color="#a57c52"/><stop offset="0.51" stop-color="#ffe16b"/><stop offset="0.61" stop-color="#42210b"/><stop offset="0.7" stop-color="#a57c52"/><stop offset="0.74" stop-color="#a57c52"/><stop offset="0.84" stop-color="#ffbe4c"/><stop offset="0.98" stop-color="#736357"/></radialGradient><radialGradient id="radial-gradient-3" cx="965.19" cy="1486.09" r="601.94" gradientTransform="matrix(0.92, 0.39, -0.11, 0.25, 250.3, -261.58)" xlink:href="#radial-gradient"/><radialGradient id="New_Gradient_Swatch_2-3" cx="965.19" cy="1486.35" r="602.3" gradientTransform="matrix(0.92, 0.39, -0.11, 0.25, 250.3, -261.58)" xlink:href="#New_Gradient_Swatch_2"/><radialGradient id="New_Gradient_Swatch_2-4" cx="965.19" cy="1486.09" r="806.47" gradientTransform="matrix(0.92, 0.39, -0.11, 0.25, 250.3, -261.58)" xlink:href="#New_Gradient_Swatch_2"/></defs><path class="cls-1" d="M1499.85,672.31c-21.22-27.46-55.15-58.49-100.84-92.22s-100.84-68.48-163.91-103.27c-65.31-36-136.29-70.49-211-102.49s-148.64-59.59-219.77-82c-68.7-21.66-131.89-37.6-187.84-47.4S514.69,232,480.17,235.56c-35.73,3.71-57.67,14.51-65.21,32.11s-.22,40.93,21.75,69.35c21.22,27.46,55.15,58.49,100.84,92.23s100.84,68.48,163.92,103.26c65.3,36,136.28,70.5,211,102.49s148.64,59.59,219.77,82c68.7,21.66,131.9,37.61,187.84,47.4s101.81,13,136.33,9.36c35.73-3.71,57.67-14.51,65.21-32.1S1521.82,700.73,1499.85,672.31ZM923.4,609.44C677.75,504.22,498.7,372,523.49,314.15s244-19.48,489.67,85.74,424.7,237.43,399.92,295.29S1169.06,714.66,923.4,609.44Z"/><path class="cls-2" d="M1043.08,330C633.65,154.68,268.26,90.7,227,187.14s257.1,316.78,666.53,492.15,774.81,239.34,816.12,142.9S1452.5,505.41,1043.08,330Zm421.4,448.19c-35.09,3.65-81.72.44-138.59-9.51s-121.11-26.17-191-48.19c-72.31-22.79-147.48-50.84-223.41-83.37S763.43,569.58,697,533c-64.12-35.36-120.18-70.68-166.63-105s-80.93-65.83-102.5-93.74c-22.34-28.9-29.78-52.62-22.12-70.51s30-28.87,66.3-32.64c35.09-3.64,81.71-.44,138.58,9.52s121.11,26.17,191,48.18c72.31,22.8,147.48,50.85,223.41,83.37s148.1,67.58,214.49,104.19c64.12,35.37,120.19,70.68,166.63,105s80.93,65.83,102.51,93.75c22.33,28.89,29.77,52.62,22.11,70.5S1500.8,774.46,1464.48,778.23Z"/><g id="Layer_1" data-name="Layer 1"><ellipse class="cls-3" cx="959.98" cy="512.45" rx="312.41" ry="343.37" transform="matrix(0.39, -0.92, 0.92, 0.39, 110.96, 1193.13)"/></g><path class="cls-4" d="M1416.84,686.92c-51.07,48.13-258.68,13.55-486.76-84.14S533.72,378.67,533.33,308.49L424.17,261.74c-1.24,17.31,6.23,37.85,22.36,61.3C466.85,352.6,500,385.52,545,420.87s99.6,71.38,162.3,107C772.16,564.86,843,599.81,917.65,631.8s148.84,59.12,220.36,80.63c69.08,20.76,132.82,35.44,189.46,43.61s103.32,9.44,138.73,3.75c28.1-4.51,48.13-13.27,59.81-26.11Z"/><path class="cls-5" d="M1535.22,737.62c-11.85,13.16-32.27,22.14-61,26.75-36,5.78-83.45,4.49-141-3.82s-122.37-23.22-192.6-44.34c-72.71-21.85-148.08-49.43-224-82S768.7,566.2,702.71,528.65c-63.73-36.26-119.24-72.88-165-108.82s-79.4-69.4-100.06-99.45c-16.47-24-24.07-44.94-22.71-62.59L235.57,181C218.11,295.4,504.16,514.21,896.11,682.09s747.7,224,818.49,132.37Z"/></svg>
